<?xml version="1.0" standalone="no"?>
<!DOCTYPE svg PUBLIC "-//W3C//DTD SVG 20010904//EN"
 "http://www.w3.org/TR/2001/REC-SVG-20010904/DTD/svg10.dtd">
<svg version="1.0" xmlns="http://www.w3.org/2000/svg"
 width="1563.000000pt" height="1563.000000pt" viewBox="0 0 1563.000000 1563.000000"
 preserveAspectRatio="xMidYMid meet">

<g transform="translate(0.000000,1563.000000) scale(0.100000,-0.100000)"
fill="#000000" stroke="none">
<path d="M3750 8755 l0 -4294 173 -55 c94 -31 1011 -325 2036 -655 l1864 -599
1771 569 c974 314 1889 608 2034 655 l262 85 0 4294 0 4295 -4070 0 -4070 0 0
-4295z m4314 4193 c16 -26 19 -43 17 -110 -1 -36 -5 -48 -16 -48 -9 0 -18 -7
-22 -15 -5 -14 -8 -14 -24 1 -28 25 -24 60 9 76 32 16 41 58 17 82 -23 23 -42
20 -61 -10 -32 -49 -22 -106 44 -235 64 -124 81 -195 65 -258 -8 -31 -5 -38
26 -73 l34 -38 33 25 c18 14 35 25 37 25 3 0 10 -14 18 -32 11 -26 14 -28 19
-13 6 17 7 17 12 -3 7 -27 -32 -62 -69 -62 -21 0 -22 -2 -13 -20 22 -42 9 -73
-43 -99 -47 -23 -56 -24 -320 -26 -252 -2 -276 0 -324 18 -62 24 -84 63 -58
103 13 20 13 22 1 18 -15 -6 -50 9 -78 33 -20 18 -13 50 7 33 9 -8 16 -3 25
20 13 31 13 31 34 12 41 -37 47 -36 86 7 36 40 54 81 69 168 9 51 24 70 68 88
22 9 33 21 33 34 0 11 6 26 13 33 26 25 37 57 37 101 0 31 6 49 19 61 11 10
21 28 23 40 4 29 61 31 67 1 2 -11 14 -33 28 -49 15 -18 21 -35 18 -47 -8 -24
13 -91 31 -102 8 -4 14 -19 14 -32 0 -18 8 -26 34 -35 47 -15 64 -38 76 -100
14 -72 35 -94 25 -26 -4 29 -31 98 -65 166 -63 125 -76 170 -66 224 15 77 87
115 120 64z m-796 -276 c-1 -4 -14 -35 -28 -70 l-25 -62 -1480 0 -1480 0 2
-3852 c2 -2118 5 -3853 7 -3856 8 -7 3541 -1142 3558 -1142 9 0 801 252 1760
560 959 309 1758 565 1776 571 l32 11 0 3854 0 3854 -1489 0 -1488 0 -24 63
c-13 34 -25 65 -27 70 -2 4 710 7 1582 7 l1586 0 0 -3980 c0 -2189 -2 -3980
-5 -3980 -3 0 -832 -266 -1842 -590 -1011 -325 -1845 -592 -1854 -592 -9 -1
-849 266 -1867 592 l-1852 595 0 3978 0 3977 1581 0 c869 0 1579 -3 1577 -8z
m-2255 -685 c31 -14 57 -31 57 -37 0 -11 -58 -130 -64 -130 -1 0 -18 7 -36 16
-104 53 -208 27 -185 -45 3 -12 46 -39 108 -70 110 -55 138 -77 177 -131 20
-28 24 -46 23 -90 -1 -30 -6 -67 -11 -81 -40 -102 -178 -161 -326 -138 -62 10
-206 72 -206 90 0 5 6 20 14 32 8 12 26 41 40 64 l26 43 65 -36 c94 -52 193
-49 210 6 13 40 -5 58 -105 109 -54 28 -113 66 -131 83 -86 86 -77 207 22 291
56 48 87 57 184 53 58 -3 96 -11 138 -29z m4569 0 c93 -46 169 -137 197 -239
21 -74 11 -191 -23 -265 -29 -65 -105 -147 -162 -175 -53 -27 -134 -41 -206
-35 -131 11 -233 83 -292 207 -28 59 -31 74 -31 165 0 87 3 107 26 155 31 67
76 120 136 161 66 45 116 59 214 56 69 -3 96 -8 141 -30z m725 17 c141 -41
253 -198 253 -353 0 -153 -77 -279 -208 -343 -61 -30 -74 -33 -162 -33 -76 1
-105 5 -143 23 -100 45 -165 116 -198 219 -21 63 -25 180 -8 234 38 120 134
221 242 255 58 18 158 17 224 -2z m-4777 -14 c111 -41 163 -153 129 -275 -11
-38 -70 -107 -113 -131 -18 -9 -10 -21 90 -140 60 -71 115 -137 123 -147 13
-16 7 -17 -95 -17 l-109 1 -105 136 -105 136 -3 -136 -3 -137 -84 0 -85 0 0
366 0 366 163 -4 c96 -3 176 -11 197 -18z m1155 -11 c27 -13 63 -41 79 -62 29
-37 31 -44 31 -127 0 -82 -2 -91 -30 -131 -16 -23 -47 -51 -68 -62 -34 -17
-36 -21 -24 -36 8 -9 54 -63 102 -121 48 -58 91 -106 95 -108 3 -1 67 147 141
330 l135 333 80 0 79 0 134 -332 c74 -183 137 -331 139 -328 5 5 61 585 62
638 l0 27 93 0 92 0 75 -196 c41 -108 77 -197 80 -199 3 -2 39 85 81 193 l76
197 92 3 c50 1 91 -1 91 -5 0 -4 14 -152 30 -328 16 -176 30 -335 30 -352 l0
-33 -85 0 -85 0 0 28 c0 15 -7 104 -15 197 -8 94 -15 175 -15 180 -1 6 -34
-82 -74 -195 l-72 -205 -51 -3 -51 -3 -20 53 c-10 29 -43 122 -72 207 -30 85
-55 150 -56 145 -2 -5 -10 -97 -19 -204 -9 -106 -17 -195 -18 -196 -1 -1 -76
-5 -167 -9 l-165 -7 -28 76 -28 76 -134 0 -134 0 -19 -52 c-11 -29 -23 -63
-26 -75 -8 -26 -18 -27 -228 -16 l-128 6 -105 134 -104 134 -3 -133 -3 -133
-85 0 -85 0 -3 350 c-1 192 0 356 3 364 4 11 36 13 169 9 147 -4 167 -7 211
-29z m4413 -46 l3 -73 -91 0 -90 0 0 -290 0 -290 -85 0 -85 0 0 290 0 290 -85
0 -85 0 0 68 c0 38 3 72 7 76 4 3 119 5 257 4 l251 -3 3 -72z m-5128 -293 l0
-360 -90 0 -90 0 0 360 0 360 90 0 90 0 0 -360z m2852 322 c74 -36 134 -96
169 -170 28 -57 37 -181 19 -250 -28 -101 -104 -188 -207 -235 -42 -19 -69
-22 -205 -25 l-158 -4 0 362 0 362 158 -4 c155 -3 159 -4 224 -36z m-1902
-940 c0 -40 -55 -55 -117 -31 -39 15 -63 -16 -63 -82 l0 -49 43 -2 42 -1 -42
-4 -43 -4 0 -134 c0 -78 4 -136 10 -140 25 -15 5 -25 -51 -25 l-60 0 15 22
c13 18 16 51 16 150 0 126 0 128 -22 129 l-23 2 23 4 c12 2 22 12 22 20 0 27
46 97 80 122 40 29 72 39 128 40 34 1 42 -2 42 -17z m1621 -32 c33 -9 37 -15
43 -51 7 -41 -2 -68 -12 -39 -3 8 -20 30 -39 49 -29 29 -38 33 -70 28 -42 -7
-53 -20 -53 -61 0 -53 42 -119 135 -212 94 -96 149 -134 168 -115 16 16 20
103 5 146 l-13 40 -80 6 c-69 5 -63 5 45 6 69 0 110 -2 92 -4 l-33 -4 26 -30
c42 -51 29 -119 -34 -172 -58 -49 -98 -45 -171 14 l-34 29 -37 -36 c-65 -64
-159 -52 -201 27 -34 63 -14 129 52 170 22 13 38 29 35 34 -26 65 -28 84 -9
117 34 58 104 80 185 58z m-2820 -11 c19 -7 49 -23 67 -36 98 -73 104 -253 10
-340 -45 -42 -89 -53 -218 -53 l-121 0 15 22 c13 18 16 55 16 198 0 143 -3
180 -16 198 l-15 22 114 0 c63 0 129 -5 148 -11z m3410 -141 c67 -84 126 -157
132 -163 6 -6 8 40 5 128 -4 127 -6 139 -28 162 l-23 25 47 0 c44 0 47 -2 35
-17 -11 -12 -15 -69 -19 -226 l-5 -210 -145 184 -145 184 -3 -125 c-4 -148 2
-183 30 -210 l22 -20 -49 0 c-38 0 -46 3 -37 12 8 8 12 67 12 202 0 162 -2
192 -17 208 -15 17 -14 18 25 18 41 0 41 0 163 -152z m-1563 130 c32 -32 -4
-87 -48 -73 -25 8 -37 50 -20 70 15 18 51 20 68 3z m172 -58 l0 -40 48 -2 47
-2 -48 -3 -48 -4 3 -132 c3 -130 3 -132 27 -135 13 -2 28 1 34 7 6 6 18 11 27
11 23 -1 -48 -58 -81 -65 -68 -15 -89 33 -89 203 0 109 -1 112 -22 112 -20 1
-16 7 27 45 63 56 75 57 75 5z m2070 0 l0 -40 48 -2 47 -2 -48 -3 -48 -4 3
-132 c3 -129 3 -132 26 -135 13 -2 34 4 48 12 30 21 31 6 2 -22 -24 -22 -69
-42 -94 -42 -8 0 -23 9 -34 20 -18 18 -20 33 -20 160 0 133 -1 140 -20 140
-29 0 -25 10 23 52 55 48 67 48 67 -2z m-3799 -72 c0 -18 3 -28 5 -21 3 7 20
21 37 32 26 16 51 20 135 20 94 1 103 -1 98 -17 -3 -9 15 -62 39 -117 40 -91
45 -97 53 -75 6 14 24 59 40 100 22 54 28 79 21 92 -9 16 -5 18 33 18 l42 0
-27 -28 c-15 -15 -51 -85 -81 -154 -75 -173 -90 -201 -126 -232 -56 -47 -161
-28 -113 20 13 12 30 15 70 12 51 -5 54 -3 73 28 l21 32 -60 137 c-33 75 -67
145 -77 156 -17 19 -17 19 -28 -3 -13 -26 -53 -34 -96 -19 -47 16 -60 -16 -60
-144 0 -63 4 -105 10 -105 6 0 10 -4 10 -10 0 -6 -26 -10 -59 -10 l-59 0 15
30 c20 42 15 226 -7 240 -18 11 -14 15 30 34 51 22 60 20 61 -16z m919 1 l0
-30 37 30 c29 24 47 31 79 31 45 0 58 -13 42 -43 -8 -15 -20 -18 -71 -15 -56
3 -62 1 -74 -22 -19 -37 -17 -190 3 -218 l15 -22 -60 0 c-56 0 -76 10 -51 25
6 4 10 55 10 120 0 65 -4 116 -10 120 -17 11 -11 21 23 38 47 23 57 21 57 -14z
m280 -97 c0 -148 11 -178 61 -168 16 3 40 13 54 22 24 16 25 21 25 115 0 54
-4 101 -10 104 -5 3 -10 10 -10 14 0 8 64 41 80 41 6 0 10 -56 10 -138 0 -108
3 -142 16 -160 15 -22 15 -22 -31 -22 -37 0 -48 4 -52 18 -4 17 -8 17 -53 -6
-65 -32 -112 -25 -140 21 -16 26 -20 50 -20 129 0 54 -4 100 -10 103 -18 11
-10 26 23 40 57 25 57 26 57 -113z m368 -21 c1 -86 7 -150 14 -158 8 -10 -2
-13 -53 -13 -49 0 -60 3 -51 12 15 15 17 258 2 258 -21 0 -9 17 23 33 60 30
62 27 65 -132z m479 143 c15 -4 23 -17 28 -41 9 -49 -1 -53 -35 -11 -33 40
-77 54 -115 36 -56 -26 -17 -81 78 -110 86 -26 114 -102 59 -158 -37 -37 -89
-46 -155 -29 -51 14 -52 15 -58 59 -6 45 -1 69 9 40 3 -8 22 -32 42 -52 29
-30 45 -38 73 -38 41 0 67 21 67 55 0 29 -24 46 -97 70 -142 45 -117 184 32
184 28 1 60 -2 72 -5z m1375 -130 c3 -122 5 -137 23 -150 22 -16 56 -12 93 12
20 13 22 22 22 119 0 63 -4 105 -10 105 -21 0 -8 17 25 33 66 31 65 33 65
-131 0 -102 4 -152 12 -160 9 -9 2 -12 -34 -12 -37 0 -48 4 -53 19 -5 17 -8
17 -52 -5 -54 -28 -74 -29 -112 -9 -39 19 -51 60 -51 166 0 48 -4 91 -10 94
-18 11 -10 25 23 39 56 25 55 26 59 -120z m709 126 c13 -8 19 -21 19 -45 0
-19 -2 -35 -5 -35 -3 0 -19 15 -35 34 -36 40 -83 53 -117 31 -50 -33 -25 -66
79 -105 65 -24 88 -49 88 -96 0 -85 -113 -129 -215 -82 -22 10 -25 17 -24 57
0 40 2 43 12 27 32 -51 61 -76 93 -82 51 -9 84 8 84 46 0 34 -22 51 -88 71
-54 16 -102 59 -102 91 1 32 23 68 51 84 29 16 132 18 160 4z m-93 -879 c22
-30 47 -38 127 -41 l60 -2 -71 -13 c-39 -7 -80 -17 -91 -24 -27 -14 -43 -60
-44 -130 l-1 -56 -10 45 c-27 133 -37 144 -154 159 -60 7 -63 9 -24 10 116 3
153 34 166 138 l8 68 7 -65 c5 -36 16 -75 27 -89z m395 -41 c19 -302 76 -357
382 -368 l150 -6 -150 -17 c-82 -9 -169 -22 -193 -29 -56 -17 -116 -70 -135
-119 -20 -48 -37 -177 -38 -291 l-2 -85 -8 100 c-11 128 -33 237 -57 284 -43
83 -150 119 -367 122 l-110 2 75 8 c264 30 325 48 373 111 38 50 57 143 57
288 1 143 14 143 23 0z m-1461 -157 c17 -10 27 -82 21 -156 -4 -46 -9 -73 -13
-62 -6 18 -8 17 -29 -4 -12 -12 -19 -27 -15 -33 4 -7 3 -8 -5 -4 -6 4 -9 12
-6 17 9 14 -28 -3 -49 -23 -23 -21 -35 -16 -16 7 10 12 10 15 -1 16 -10 0 -11
2 -1 6 18 7 15 23 -6 23 -10 0 -18 -8 -19 -17 -3 -37 -10 -58 -21 -58 -6 0
-14 -3 -18 -7 -4 -5 -2 -8 4 -8 9 0 9 -7 0 -27 -7 -16 -15 -32 -19 -37 -10
-11 -6 15 5 32 5 8 3 18 -4 25 -10 9 -11 9 -6 0 4 -7 4 -19 -1 -25 -4 -7 -8
-24 -8 -38 0 -26 -20 -31 -59 -15 -14 6 -17 5 -12 -3 4 -7 5 -12 2 -12 -16 0
-13 20 6 36 12 11 18 13 14 7 -4 -7 -5 -13 -2 -13 2 0 13 -3 23 -7 12 -4 9 2
-10 20 -15 15 -23 27 -18 27 6 0 11 7 11 15 0 8 5 15 11 15 5 0 7 -5 3 -12 -4
-6 -3 -8 4 -4 5 3 13 0 15 -6 4 -9 6 -8 6 3 1 8 -6 24 -14 35 -16 22 -20 58
-5 49 6 -4 8 -10 6 -14 -3 -4 1 -8 9 -8 10 0 11 6 4 24 -11 31 -12 53 -1 36 5
-8 12 -3 20 16 7 16 18 28 25 28 37 -1 47 4 47 25 0 21 0 21 -14 2 -14 -18
-15 -18 -12 0 1 10 11 25 21 32 16 12 21 12 36 -2 15 -14 17 -13 23 11 4 14 4
30 1 35 -4 6 -1 10 6 10 9 0 9 4 -1 15 -14 17 -20 13 -99 -65 -42 -42 -49 -46
-31 -20 14 19 46 57 72 83 42 45 49 48 80 42 18 -4 36 -9 40 -12z m-2227 -70
c-6 -24 -5 -25 12 -12 10 8 24 21 31 29 10 13 11 12 6 -5 -4 -11 -14 -28 -22
-38 -23 -26 -8 -32 47 -19 39 9 61 8 103 -2 29 -8 94 -22 143 -31 50 -9 128
-27 175 -41 106 -32 366 -160 392 -194 11 -14 41 -53 68 -87 27 -34 51 -72 55
-83 5 -15 15 -20 39 -20 22 0 33 -5 33 -15 0 -8 -4 -12 -9 -9 -4 3 -8 1 -8 -5
0 -5 5 -11 11 -13 7 -2 4 -10 -7 -18 -15 -12 -16 -13 -9 -1 6 11 4 13 -8 8
-12 -4 -14 -2 -10 10 4 10 2 14 -4 10 -16 -10 -23 -47 -9 -41 7 3 13 -2 13
-11 0 -9 -6 -14 -14 -11 -7 3 -13 1 -13 -5 0 -6 -6 -7 -12 -3 -7 4 -10 4 -6
-1 4 -4 3 -16 -2 -26 -11 -20 -4 -27 31 -34 46 -9 31 -16 -21 -10 -101 11
-121 16 -114 26 4 7 -3 9 -17 7 -16 -2 -23 2 -21 10 1 8 -2 11 -8 7 -15 -9 8
-37 24 -28 6 3 7 2 3 -3 -14 -15 -31 -11 -46 9 -12 17 -12 21 3 29 22 13 20
28 -5 28 -12 0 -18 -4 -13 -11 4 -7 1 -10 -7 -7 -8 3 -13 12 -11 20 1 9 -5 21
-13 28 -10 9 -15 9 -15 1 0 -6 5 -11 11 -11 5 0 7 -4 4 -10 -3 -5 2 -22 12
-37 18 -26 18 -27 -2 -20 -20 7 -20 7 -1 -8 11 -8 14 -15 7 -15 -7 0 -9 -5 -6
-10 4 -6 11 -7 17 -4 7 5 9 1 5 -9 -5 -12 -1 -17 13 -17 11 0 20 -5 20 -11 0
-5 -6 -7 -12 -3 -7 4 -3 -3 9 -15 23 -22 39 -28 28 -10 -7 10 33 -9 45 -21 3
-3 12 -5 20 -5 8 1 20 -1 25 -4 21 -11 116 -24 193 -25 41 -1 53 -4 58 -19 6
-18 7 -18 26 -1 15 15 21 16 27 5 7 -10 11 -10 22 2 10 10 22 12 42 6 18 -5
42 -3 69 7 22 8 52 14 65 14 24 0 24 2 -17 50 l-42 51 17 45 c9 25 36 63 58
85 l41 39 -17 36 c-21 44 -24 40 97 141 109 92 214 145 297 151 52 4 59 7 70
33 6 16 16 32 21 35 5 3 0 -12 -11 -34 -31 -62 -71 -187 -71 -224 l0 -34 70
-11 c38 -6 88 -21 112 -33 l43 -22 33 38 c18 21 28 40 23 42 -21 7 86 86 165
123 45 22 111 43 151 50 61 10 77 9 122 -6 28 -9 65 -28 81 -42 29 -24 30 -25
23 -101 -7 -88 -41 -173 -76 -190 -12 -5 -56 -35 -97 -65 -41 -31 -86 -64
-100 -74 -14 -9 -35 -18 -47 -19 -52 -2 -27 -11 65 -22 164 -20 278 -64 410
-160 43 -32 69 -60 84 -91 l22 -45 -26 -48 -26 -48 42 0 c59 0 149 -25 235
-66 119 -56 245 -195 334 -369 70 -138 85 -244 68 -480 -21 -292 -71 -415
-231 -575 -61 -61 -234 -190 -254 -190 -3 0 -30 -11 -60 -25 -30 -14 -61 -25
-68 -25 -8 0 -38 -6 -68 -14 -106 -27 -144 -28 -168 -8 -12 11 -22 26 -22 35
0 9 -9 19 -20 22 -25 8 -26 27 -2 47 9 8 67 41 129 73 61 31 124 69 140 84 15
14 46 40 68 56 116 86 209 205 302 386 20 39 -2 99 -43 120 -18 8 -63 43 -100
77 -69 62 -94 75 -94 47 0 -8 -4 -15 -10 -15 -5 0 -10 8 -10 18 0 11 -8 17
-25 18 -62 4 -76 13 -73 46 4 42 50 78 78 60 21 -13 78 -16 104 -6 8 3 29 28
47 56 27 42 36 49 55 44 34 -9 30 8 -11 49 -39 38 -85 48 -85 18 0 -18 -28
-53 -42 -53 -5 0 -26 -11 -47 -24 -36 -23 -101 -47 -161 -60 -20 -4 -41 -30
-89 -108 -35 -57 -74 -119 -87 -139 -13 -19 -24 -38 -24 -42 0 -11 -42 -67
-50 -67 -11 0 -28 69 -23 92 3 13 16 46 29 75 13 28 24 56 24 61 0 12 103 92
117 92 19 0 30 25 37 81 7 52 5 57 -17 72 -13 9 -42 18 -63 21 -22 3 -54 9
-73 12 -25 5 -32 4 -26 -6 4 -6 15 -10 25 -7 22 6 37 -23 18 -35 -7 -4 -15 -8
-18 -8 -3 0 -6 -10 -7 -21 -1 -12 -9 -29 -17 -38 -9 -10 -19 -32 -22 -49 -4
-18 -11 -35 -15 -38 -5 -3 -9 -15 -9 -27 0 -19 7 -14 45 28 24 28 44 45 45 39
0 -6 -7 -17 -15 -24 -8 -7 -15 -19 -15 -26 0 -22 -52 -75 -88 -91 -27 -11 -37
-11 -49 -2 -10 9 -17 9 -21 2 -4 -6 -22 -14 -40 -18 -26 -5 -33 -12 -31 -28 3
-40 -1 -45 -41 -61 -22 -9 -40 -20 -40 -25 0 -5 37 -16 83 -25 110 -21 140
-30 145 -44 2 -7 -2 -10 -12 -6 -9 3 -16 1 -16 -5 0 -6 5 -11 11 -11 5 0 7 -5
3 -12 -5 -8 -2 -9 12 -4 42 18 54 18 54 3 0 -20 -77 -28 -85 -9 -8 21 -59 5
-97 -30 -42 -39 -72 -50 -114 -42 -54 10 -107 88 -74 109 6 3 10 22 10 41 0
35 -1 35 -32 29 -18 -4 -40 -9 -50 -11 -27 -8 -31 14 -9 50 32 51 44 57 122
65 l71 6 13 38 c7 20 29 57 49 81 42 52 46 76 12 76 -13 0 -29 7 -36 15 -7 8
-18 15 -24 15 -10 0 -55 -60 -102 -136 -53 -87 -91 -102 -161 -64 -49 26 -61
25 -69 -5 -7 -30 -24 -33 -24 -4 0 12 -5 19 -12 16 -14 -4 -14 -8 1 -102 18
-109 19 -178 5 -207 -12 -23 -12 -28 1 -36 14 -7 13 -11 -4 -26 -20 -18 -20
-18 -27 8 -3 15 -11 25 -18 23 -15 -5 -20 -57 -7 -70 8 -8 11 -8 11 1 0 7 4
12 8 12 7 0 8 -74 1 -117 -4 -21 -18 -15 -56 22 -36 35 -41 37 -100 39 -34 1
-39 -3 -24 -19 5 -6 11 -41 13 -80 l3 -70 -28 -3 c-38 -5 -29 -25 14 -33 40
-6 79 -26 79 -39 0 -6 11 -10 24 -10 30 0 42 -30 24 -59 -14 -23 -28 -28 -28
-10 0 6 -7 3 -17 -6 -11 -11 -26 -15 -47 -12 -17 3 -49 8 -71 12 -85 14 -238
63 -201 65 4 0 1 11 -8 25 -23 35 -5 52 63 61 l51 7 -22 38 c-12 22 -25 39
-29 39 -4 0 -9 10 -13 23 -8 32 -59 90 -82 92 -38 3 -61 16 -74 40 -7 14 -22
27 -32 31 -18 5 -18 7 -3 24 9 10 14 23 11 29 -4 5 14 3 40 -6 32 -11 54 -27
73 -54 32 -46 59 -56 79 -27 13 17 22 20 63 15 26 -3 62 -13 79 -22 l31 -16
-3 27 c-2 15 -9 30 -17 32 -10 3 -12 0 -8 -12 8 -20 -9 -21 -29 -1 -14 13 -14
15 1 15 28 0 44 25 51 79 5 41 3 55 -10 70 -17 18 -17 19 1 23 10 2 -19 16
-65 31 -45 15 -99 36 -120 47 l-37 21 45 -7 c46 -7 114 -36 125 -54 3 -5 19
-10 35 -10 24 0 31 5 36 28 7 31 43 158 50 177 3 7 -5 14 -21 17 -21 4 -23 3
-14 -9 9 -11 8 -12 -5 -7 -9 3 -16 10 -16 16 0 5 -4 7 -10 3 -5 -3 -6 -13 -3
-23 6 -15 4 -15 -15 2 -12 10 -19 23 -16 27 3 5 -5 13 -18 18 -17 7 -19 10 -5
10 9 1 17 6 17 11 0 6 7 10 16 10 9 0 13 -5 9 -12 -4 -7 1 -4 9 6 9 11 16 23
16 28 0 4 7 8 15 8 8 0 15 5 15 10 0 6 16 8 38 6 l37 -5 74 107 c65 93 89 140
115 227 5 18 1 20 -52 21 -75 2 -152 34 -264 108 -76 50 -198 166 -198 188 0
5 -4 8 -10 8 -20 0 -9 -62 21 -123 47 -92 135 -199 222 -268 43 -34 55 -39
102 -39 64 0 89 -20 53 -43 -51 -33 -155 8 -229 89 -70 76 -113 119 -119 117
-13 -4 -79 124 -105 202 -30 87 -29 129 4 193 22 44 56 76 70 68 5 -3 20 -2
34 3 14 5 27 7 30 5 3 -3 29 -7 59 -9 104 -6 127 -15 186 -70 69 -64 215 -301
214 -347 0 -15 0 -28 1 -28 2 0 28 24 59 54 40 39 68 57 95 62 31 6 34 8 18
15 -19 7 -19 8 1 8 11 1 24 -2 28 -6 3 -4 15 -8 26 -10 14 -2 18 2 14 12 -5
11 2 15 27 15 65 1 225 50 241 74 4 6 2 14 -5 18 -8 5 -5 8 7 8 11 0 17 3 13
6 -3 4 -26 -4 -51 -16 -42 -20 -47 -20 -62 -6 -10 10 -21 13 -30 8 -8 -4 -59
-3 -114 3 -55 6 -100 7 -100 3 0 -4 6 -8 13 -9 37 -2 54 -6 72 -17 17 -10 13
-11 -30 -12 -28 0 -59 6 -70 14 -25 16 -103 27 -111 15 -10 -17 -23 -9 -45 31
-13 22 -28 40 -35 40 -21 0 -10 62 14 78 11 7 33 25 49 38 78 70 171 93 373
95 115 1 149 4 130 11 -14 6 -34 14 -45 18 -47 19 -186 40 -257 39 -61 0 -82
-4 -102 -20 -14 -11 -26 -25 -26 -31 0 -6 6 -6 15 2 30 25 14 -7 -20 -40 -30
-29 -38 -32 -46 -20 -9 13 -10 12 -5 -2 8 -26 -14 -33 -30 -9 -8 12 -20 21
-26 21 -7 0 -3 -7 8 -16 10 -8 14 -13 7 -10 -6 4 -15 2 -18 -4 -4 -6 -24 -22
-46 -36 -34 -21 -39 -29 -39 -62 0 -36 10 -56 60 -124 l25 -33 -25 16 c-29 18
-88 101 -96 136 -4 14 1 40 11 62 13 30 21 37 36 34 14 -4 18 -1 14 9 -3 8 3
25 14 37 12 13 19 27 16 31 -7 12 71 62 92 58 10 -2 17 2 15 10 -1 6 2 12 8
12 5 0 7 6 4 13 -5 14 66 85 154 152 29 22 52 43 52 47 0 4 -57 -20 -127 -52
-100 -46 -130 -65 -137 -85 -6 -14 -14 -25 -19 -25 -4 0 -5 -4 -2 -10 6 -10 2
-12 -32 -13 -10 -1 -22 -7 -26 -14 -5 -8 -13 -11 -19 -7 -6 4 -5 10 3 15 9 6
10 9 2 9 -19 0 -65 -62 -60 -82 3 -10 1 -16 -4 -12 -5 3 -9 0 -9 -7 0 -8 -4
-8 -15 1 -10 8 -15 9 -15 1 0 -6 -11 -13 -25 -17 -14 -3 -25 -11 -25 -16 0
-17 -247 -4 -300 16 -25 10 -58 18 -73 18 -16 1 -32 9 -38 20 -16 30 -28 11
-18 -27 6 -20 7 -44 4 -54 -6 -21 21 -38 28 -18 6 17 17 4 22 -26 4 -19 -3
-32 -31 -56 -38 -34 -58 -33 -49 2 5 19 5 20 -5 5 -6 -10 -22 -18 -35 -18 -13
0 -44 -9 -69 -19 -61 -27 -185 -55 -273 -63 -15 -2 -17 -14 -4 -22 5 -4 12 0
14 6 3 7 8 -2 12 -19 4 -18 11 -33 15 -33 16 0 178 62 223 85 55 28 61 30 51
14 -4 -7 0 -9 14 -5 14 5 21 1 25 -14 3 -11 0 -23 -5 -27 -7 -3 -8 -1 -4 5 4
7 2 12 -3 12 -6 0 -11 -5 -11 -11 0 -5 -4 -8 -9 -5 -4 3 -13 -6 -20 -20 -6
-14 -17 -24 -23 -22 -13 5 -42 -21 -51 -43 -3 -8 -6 -4 -6 9 -1 19 -3 21 -15
10 -8 -8 -10 -15 -4 -19 15 -10 -7 -20 -26 -13 -9 3 -16 1 -16 -4 0 -6 8 -13
18 -15 9 -3 2 -5 -15 -6 -18 0 -33 -5 -33 -11 0 -19 -48 -11 -55 10 -3 11 -11
20 -16 20 -6 0 -9 -3 -7 -7 59 -125 81 -184 109 -302 18 -76 21 -112 17 -195
-5 -96 -21 -177 -40 -202 -5 -7 -24 -15 -42 -18 -19 -4 -56 -18 -83 -32 -39
-21 -45 -23 -30 -7 9 11 17 23 17 28 0 4 7 13 16 20 14 10 7 14 -45 24 -47 9
-66 9 -76 1 -8 -7 -19 -9 -24 -6 -5 4 -12 2 -16 -4 -4 -6 -11 -8 -16 -5 -5 4
-9 -2 -9 -12 0 -15 -2 -16 -10 -3 -8 12 -10 12 -16 -3 -4 -10 -13 -16 -20 -13
-8 3 -14 -1 -14 -10 0 -8 -5 -12 -11 -9 -6 4 -9 0 -7 -9 2 -10 -9 -24 -27 -34
-16 -9 -33 -21 -37 -27 -5 -6 -12 -5 -17 5 -6 9 -6 19 -1 26 6 6 6 14 2 18 -4
4 0 6 8 4 8 -1 15 4 15 12 0 8 4 21 9 28 7 11 4 12 -11 4 -17 -9 -41 -53 -56
-103 -4 -11 -14 -15 -37 -11 -44 6 -47 25 -11 63 17 17 31 28 31 23 0 -5 10 6
21 24 12 17 26 32 32 33 7 0 3 5 -8 10 -17 8 -16 9 8 6 20 -3 25 -1 18 7 -8 9
2 10 37 6 41 -6 55 -2 112 28 36 20 67 38 70 42 3 4 25 18 50 30 45 23 72 49
64 62 -2 4 0 9 6 13 6 4 8 11 5 16 -4 5 -1 9 4 9 6 0 11 6 11 14 0 8 5 16 12
18 15 5 13 94 -2 113 -7 9 -10 26 -6 42 3 16 9 38 11 51 6 25 -21 84 -60 131
-15 17 -22 31 -16 31 15 0 5 55 -16 87 -10 14 -31 34 -48 44 -16 11 -23 19
-15 20 8 0 -1 5 -20 12 -32 11 -35 16 -38 55 -2 23 -7 42 -13 42 -5 0 -9 7 -9
15 0 26 -22 63 -45 75 -25 13 -50 56 -46 80 1 12 0 12 -7 2 -5 -8 -13 -14 -18
-15 -5 -1 -8 -4 -7 -7 1 -3 4 -12 8 -20 3 -9 -4 -26 -16 -39 -18 -19 -28 -22
-58 -17 -20 3 -55 9 -78 12 -42 7 -48 14 -44 54 4 29 50 60 92 60 40 0 52 13
23 24 -14 5 -14 9 -3 23 9 10 10 18 4 20 -52 20 -102 53 -112 73 -12 24 -13
25 -13 3 0 -13 -4 -23 -9 -23 -6 0 -8 -9 -6 -20 3 -15 -2 -20 -16 -20 -11 0
-29 -5 -40 -10 -16 -9 -19 -7 -19 11 0 19 -2 20 -17 8 -10 -7 -15 -9 -11 -5 4
5 3 15 -2 21 -8 9 -6 14 5 19 9 3 13 2 10 -3 -3 -6 12 -10 35 -9 22 0 38 4 35
8 -3 5 1 11 7 13 7 3 -7 6 -31 6 -28 1 -48 7 -56 18 -14 19 -39 8 -31 -13 8
-20 -14 -17 -31 4 -14 16 -14 16 -9 0 4 -15 -1 -18 -31 -18 -29 0 -33 -3 -24
-14 8 -10 7 -21 -6 -47 -9 -19 -20 -36 -24 -39 -20 -13 -136 8 -143 26 -3 8
-10 14 -17 14 -6 0 -9 -6 -6 -14 8 -20 -45 -29 -59 -11 -7 10 -14 11 -21 4 -8
-8 -13 -8 -17 0 -7 11 30 54 55 63 11 4 12 9 2 27 -18 30 -15 62 8 91 l21 25
40 -45 c34 -37 39 -49 35 -77 -6 -36 0 -40 29 -18 10 8 34 15 52 15 17 0 32 5
32 10 0 6 -4 10 -10 10 -22 0 -8 38 25 70 32 31 35 39 35 90 0 49 -4 61 -31
91 -28 32 -30 32 -25 9 4 -14 2 -31 -2 -38 -13 -19 -60 2 -64 28 -3 23 -73 56
-84 39 -6 -10 -45 -12 -68 -3 -9 3 -16 15 -16 25 0 18 1 18 20 -1 11 -11 23
-20 28 -20 13 0 34 17 32 26 0 5 8 10 20 12 12 2 20 -2 20 -11 0 -17 21 -27
63 -33 40 -5 30 18 -14 33 -20 7 -26 12 -15 12 35 1 8 13 -29 13 -32 0 -36 2
-31 22 3 15 -5 31 -30 56 -19 19 -34 29 -34 22 0 -8 -9 -10 -25 -6 -15 4 -25
2 -25 -5 0 -6 8 -11 18 -11 24 0 91 -59 75 -66 -7 -3 -13 -12 -13 -20 0 -8 -9
-14 -22 -13 -17 0 -19 2 -8 7 22 10 18 44 -5 52 -21 8 -48 2 -41 -9 2 -3 -15
-6 -37 -6 -25 0 -47 -6 -55 -15 -11 -13 -13 -13 -23 3 -8 14 -14 15 -32 5 -30
-15 -46 -39 -40 -58 4 -12 3 -12 -5 -2 -8 12 -13 12 -31 1 -11 -8 -21 -17 -21
-22 0 -4 4 -6 9 -3 16 10 -1 -78 -17 -91 -9 -7 -34 -13 -56 -13 l-41 0 32 -21
c48 -31 109 -113 129 -172 9 -29 18 -54 20 -56 1 -1 24 4 51 12 59 19 113 28
113 21 0 -4 -12 -15 -26 -26 -18 -15 -24 -28 -21 -44 3 -17 0 -24 -12 -24 -9
-1 0 -8 19 -16 27 -12 32 -17 20 -24 -8 -5 -11 -10 -6 -10 6 0 2 -6 -9 -13
-10 -8 -15 -19 -11 -26 6 -8 12 -9 20 -2 7 6 16 8 19 4 4 -3 7 0 7 8 0 8 8 16
18 17 9 1 39 5 65 8 59 7 78 -6 43 -30 -15 -9 -26 -24 -26 -33 0 -14 2 -15 18
-1 24 21 50 29 57 18 3 -5 15 -6 28 -1 22 9 77 -14 77 -31 0 -4 -18 -18 -40
-30 -22 -13 -40 -29 -40 -37 0 -9 -7 -11 -21 -8 -15 4 -22 -1 -29 -19 -12 -31
-19 -31 -15 1 2 20 0 23 -11 14 -8 -6 -14 -20 -14 -30 0 -14 -7 -19 -26 -19
-26 0 -27 1 -21 50 3 28 3 50 -1 50 -17 -1 -44 -31 -51 -57 -8 -28 -17 -31
-65 -19 -18 4 -26 2 -29 -11 -4 -16 -4 -2 2 85 0 12 7 22 15 22 8 0 14 10 14
25 0 48 -31 24 -88 -68 -19 -31 -38 -56 -42 -57 -3 0 -19 26 -34 58 -34 71
-33 70 -45 52 -7 -13 -10 -13 -18 -1 -5 7 -14 10 -20 7 -7 -5 -11 2 -11 16 -1
20 -2 21 -11 6 -15 -27 8 -100 45 -139 18 -19 31 -41 29 -50 -3 -10 3 -18 15
-21 15 -4 18 -12 14 -36 -4 -27 -9 -32 -46 -38 -22 -5 -45 -8 -51 -9 -5 0 -13
-4 -17 -10 -4 -6 -16 0 -29 14 -17 18 -23 20 -30 9 -19 -31 -59 -9 -59 32 0
36 18 50 60 45 22 -3 30 -1 21 4 -8 5 -13 26 -13 52 0 92 16 139 56 171 l21
17 -22 20 c-28 26 -33 26 -33 2 0 -11 -8 -26 -18 -33 -27 -20 -35 -37 -22 -53
8 -10 5 -19 -15 -39 -14 -14 -23 -26 -19 -26 4 0 -5 -9 -19 -20 -27 -21 -53
-27 -42 -10 4 7 -5 9 -24 5 -23 -4 -31 -2 -31 10 0 8 -6 12 -14 9 -19 -7 -15
-42 9 -77 10 -16 14 -32 9 -35 -5 -4 -16 -16 -24 -27 -15 -19 -15 -19 12 0 15
11 28 23 28 28 0 9 115 118 137 130 12 8 13 6 4 -11 -6 -12 -11 -30 -11 -41 0
-11 -8 -26 -18 -33 -49 -35 -61 -68 -67 -188 -5 -108 -4 -118 20 -165 29 -59
118 -166 149 -179 11 -5 49 -21 83 -37 34 -15 84 -31 110 -35 44 -6 47 -6 34
9 -15 19 -26 23 -15 5 4 -7 3 -8 -4 -4 -31 19 9 96 50 96 16 0 17 3 8 20 -7
14 -7 20 0 20 5 0 9 5 7 12 -1 7 7 12 18 13 16 0 21 -8 25 -41 4 -23 14 -54
24 -69 12 -18 16 -37 12 -56 -4 -23 -2 -29 12 -29 38 0 111 -32 136 -61 14
-16 33 -29 41 -29 24 0 72 -34 68 -47 -3 -7 0 -13 6 -13 26 0 114 -50 113 -65
0 -6 4 -18 10 -29 8 -15 18 -17 55 -13 l45 5 -38 -23 c-37 -23 -38 -23 -35
-81 2 -36 15 -90 33 -137 25 -67 37 -84 81 -119 52 -40 218 -128 244 -128 25
0 111 -49 131 -75 11 -14 24 -39 27 -55 8 -35 5 -34 50 -13 23 11 34 22 30 31
-3 8 0 12 7 10 21 -7 21 -29 -1 -35 -19 -5 -21 -10 -15 -37 9 -43 12 -46 40
-46 22 0 24 4 24 51 0 31 4 48 10 44 6 -3 10 -1 10 4 0 6 -8 11 -17 11 -14 0
-13 3 5 16 12 8 19 20 16 26 -5 7 -2 8 5 4 7 -5 20 -2 30 6 9 7 6 3 -7 -10
-23 -22 -24 -25 -12 -68 9 -33 10 -51 2 -68 -9 -19 -7 -28 9 -44 10 -12 26
-25 35 -30 13 -7 14 -13 5 -31 -7 -11 -18 -21 -27 -21 -8 0 -27 -9 -42 -20
-21 -16 -34 -19 -52 -12 -14 5 -43 4 -76 -4 -50 -11 -52 -11 -63 12 -14 31
-25 30 -39 -1 -10 -22 -9 -25 8 -25 10 0 22 -4 25 -10 3 -5 -2 -10 -12 -10
-10 0 -25 -5 -33 -11 -12 -8 -10 -9 8 -4 18 5 22 2 22 -18 0 -15 -10 -31 -25
-41 -14 -9 -24 -22 -22 -29 1 -7 -19 -19 -45 -27 -27 -8 -48 -18 -48 -22 0 -5
19 -8 43 -9 23 0 61 -2 85 -5 41 -6 46 -3 96 44 43 41 68 55 135 76 45 14 105
27 132 28 44 2 48 4 33 15 -10 7 -26 13 -35 13 -24 0 -32 15 -16 28 7 6 48 21
92 33 104 28 293 24 366 -9 71 -31 75 -59 5 -32 -26 9 -180 14 -226 7 -14 -3
-40 -5 -58 -6 -22 -1 -31 -5 -26 -13 5 -8 0 -9 -14 -6 -23 6 -31 -7 -9 -15 6
-3 -1 -6 -17 -6 -43 -1 -27 -10 58 -31 42 -11 89 -29 105 -41 l29 -22 31 22
c36 26 144 51 223 51 47 0 61 4 81 24 19 18 39 25 95 31 68 7 75 5 127 -24 51
-29 55 -30 55 -11 0 11 -5 20 -11 20 -29 0 22 124 82 200 83 105 167 144 254
120 37 -10 44 -16 48 -44 3 -24 -1 -37 -20 -56 -14 -14 -30 -36 -35 -50 -6
-15 -12 -20 -15 -12 -3 7 2 23 9 35 21 32 31 77 17 77 -13 0 -109 -100 -109
-113 0 -5 -12 -23 -26 -41 -14 -17 -42 -55 -60 -85 -37 -57 -34 -71 12 -71 12
0 33 -9 48 -21 23 -18 27 -19 32 -4 4 9 23 24 43 35 44 22 72 12 64 -22 -4
-20 -2 -19 12 5 8 15 20 27 26 27 6 0 3 -10 -5 -22 -20 -28 -20 -38 -2 -38 12
0 12 -6 4 -32 -6 -18 -12 -39 -14 -45 -5 -20 -35 -16 -32 5 2 9 -3 16 -9 15
-7 -2 -13 3 -14 10 0 6 -5 3 -10 -8 -7 -16 -9 -14 -6 13 2 18 0 35 -5 38 -4 3
-8 1 -8 -4 0 -6 -8 -8 -17 -6 -10 2 -24 0 -32 -5 -13 -8 -13 -12 0 -27 13 -16
12 -16 -17 -1 -24 12 -42 14 -80 8 -27 -5 -40 -9 -30 -10 32 -2 8 -15 -46 -26
-58 -11 -82 -39 -26 -29 l33 5 -30 -23 c-16 -13 -33 -24 -37 -24 -5 -1 -13 -2
-19 -3 -5 0 -8 -5 -5 -9 8 -13 -74 -14 -90 -1 -10 8 -22 8 -46 0 -21 -8 -35
-8 -42 -1 -5 5 -18 10 -29 10 -35 0 0 72 58 116 19 14 35 30 35 35 0 9 -79 11
-123 3 -15 -3 -25 -10 -21 -15 7 -12 -33 -27 -96 -35 -38 -5 -50 -11 -50 -24
0 -12 11 -19 35 -23 40 -7 145 -57 145 -69 0 -4 6 -8 14 -8 17 0 66 -39 49
-40 -13 0 16 -60 30 -60 4 0 6 -10 6 -22 -1 -14 -3 -17 -5 -8 -3 9 -13 21 -24
27 -18 12 -18 11 -2 -17 16 -28 16 -30 -4 -56 -24 -33 -51 -45 -41 -20 4 9 3
14 -2 11 -5 -3 -11 5 -13 17 -3 18 -8 11 -23 -31 -11 -29 -27 -56 -35 -59 -8
-3 -25 -14 -36 -24 -14 -13 -24 -16 -29 -9 -3 6 -13 11 -20 11 -23 0 -90 52
-116 88 -22 33 -53 148 -43 164 12 19 -16 6 -30 -14 -9 -12 -16 -19 -16 -15 0
5 -13 0 -30 -10 -35 -20 -37 -29 -10 -36 11 -3 20 -11 20 -17 0 -10 -4 -10
-17 0 -10 7 -3 -1 15 -19 32 -31 42 -48 20 -35 -9 5 -9 2 1 -9 15 -18 26 -23
16 -7 -3 6 -2 10 2 10 13 0 45 -59 38 -70 -3 -6 -3 -15 1 -22 4 -6 8 -24 9
-39 l3 -28 -32 16 c-17 8 -40 23 -50 32 -18 15 -18 15 -7 -6 6 -13 24 -30 39
-38 15 -9 18 -14 8 -10 -11 3 -23 0 -27 -6 -10 -16 -126 62 -161 108 -33 43
-37 92 -8 118 26 23 21 39 -14 45 l-30 5 47 29 c29 18 42 33 35 37 -7 4 2 13
22 24 18 9 42 25 53 36 24 22 100 59 124 60 10 0 27 4 38 9 13 6 -7 8 -60 6
-54 -2 -89 -8 -106 -19 -13 -9 -67 -26 -119 -38 -52 -12 -107 -27 -121 -35
-26 -13 -123 -30 -146 -26 -7 2 -13 -1 -13 -6 0 -9 -79 -7 -126 3 -13 3 -24
15 -28 29 -5 22 -10 24 -44 19 -56 -8 -59 -20 -8 -27 25 -4 46 -11 46 -16 0
-5 -30 -11 -67 -15 -72 -7 -142 -23 -109 -24 17 -1 16 -4 -8 -26 l-27 -25 33
7 c18 3 43 12 54 20 17 11 66 13 229 11 114 -2 209 -6 211 -10 7 -11 -35 -20
-62 -14 -31 8 -31 -7 1 -28 31 -21 33 -40 3 -31 l-23 6 24 -19 c14 -12 18 -19
10 -20 -8 0 -28 -2 -46 -3 -19 -1 -30 -6 -26 -12 4 -6 -4 -8 -20 -5 -15 3 -28
2 -29 -1 -2 -3 -19 -14 -38 -24 l-35 -17 78 3 c57 2 77 -1 77 -10 0 -7 -10
-13 -22 -14 -13 0 -43 -3 -68 -6 -25 -3 -55 -6 -67 -7 -12 0 -21 -5 -20 -11 2
-13 -86 -11 -90 1 -4 12 -83 5 -83 -8 0 -5 3 -7 8 -5 4 3 16 1 27 -4 13 -6 -3
-8 -47 -5 -79 6 -141 31 -182 74 l-29 31 34 30 c18 17 42 34 51 37 21 6 24 24
4 24 -19 0 -67 61 -61 80 4 13 -5 15 -60 14 -36 -1 -67 -3 -68 -5 -2 -2 -15
-23 -30 -46 -33 -51 -122 -98 -217 -113 -81 -12 -350 -6 -407 9 -73 20 -263
187 -263 231 0 28 23 67 61 103 15 13 33 41 40 63 7 21 17 44 21 50 4 6 5 14
2 17 -4 3 -45 -29 -93 -73 -162 -148 -209 -175 -298 -167 -74 7 -128 33 -190
90 -92 84 -191 255 -228 390 l-17 65 -42 -19 c-91 -41 -188 -12 -227 69 -18
36 -21 54 -15 103 13 127 81 226 200 289 l64 34 -24 47 c-30 61 -39 118 -25
162 15 43 122 151 174 174 20 9 37 21 37 26 0 4 5 5 10 2 6 -3 10 1 10 11 0
14 -3 14 -15 4 -9 -7 -19 -10 -22 -6 -4 4 -1 11 7 16 12 8 11 10 -5 11 l-20 0
20 8 c12 5 23 4 28 -3 6 -7 7 -6 4 4 -2 8 -13 16 -25 18 -12 2 -19 8 -16 14 4
6 -2 8 -17 4 -13 -3 -18 -3 -11 0 6 3 10 10 7 15 -4 5 2 6 12 3 10 -3 7 1 -7
9 -14 9 -28 13 -32 11 -4 -3 -5 2 -2 10 3 9 1 16 -5 16 -23 0 -26 2 -37 21
-10 19 -11 19 -24 4 -12 -15 -11 -19 9 -35 16 -11 20 -19 12 -24 -6 -4 -8 -13
-4 -19 3 -7 -3 -3 -15 7 -44 38 -139 214 -173 318 -64 201 -39 372 86 577 26
44 34 68 32 96 -2 34 1 40 38 61 22 13 50 23 62 24 12 0 57 24 100 53 43 29
101 66 128 82 71 41 247 114 261 108 7 -2 18 -18 25 -35 11 -26 10 -32 -4 -40
-9 -5 -17 -16 -17 -23 0 -15 -17 -20 -53 -17 -10 1 -40 -9 -67 -23 -47 -24
-71 -45 -51 -45 5 0 13 5 17 11 3 6 16 8 27 5 12 -3 29 1 38 10 18 16 59 11
59 -6 0 -5 25 -25 55 -45 30 -20 57 -45 60 -56 9 -28 22 -24 66 22 38 40 40
41 88 34 47 -6 50 -5 65 22 20 39 123 143 141 143 8 0 15 5 15 10 0 6 7 10 15
10 11 0 15 12 16 45 1 25 2 51 4 58 1 6 -4 22 -12 34 -18 30 -16 53 3 53 13 0
15 -6 9 -27z m2145 17 c0 -5 -7 -10 -16 -10 -8 0 -12 5 -9 10 3 6 10 10 16 10
5 0 9 -4 9 -10z m-2185 -11 c11 -18 1 -19 -40 -4 l-40 14 37 1 c20 0 40 -5 43
-11z m-275 -39 c0 -5 -4 -10 -10 -10 -5 0 -10 5 -10 10 0 6 5 10 10 10 6 0 10
-4 10 -10z m-132 -37 c5 -18 -10 -16 -34 2 -18 15 -18 15 5 13 14 -2 26 -9 29
-15z m71 8 c7 -5 10 -14 7 -20 -8 -12 6 -15 18 -4 13 14 75 13 70 -1 -3 -7 10
-18 32 -26 l36 -14 -26 -9 c-14 -5 -24 -13 -20 -18 14 -24 -18 -5 -38 21 -22
31 -22 31 -38 10 l-16 -21 -27 21 c-15 12 -27 28 -27 36 0 8 -7 14 -15 14 -8
0 -15 5 -15 10 0 12 40 13 59 1z m1414 -56 c193 -49 309 -107 369 -187 28 -37
48 -73 25 -46 -8 10 -17 16 -20 13 -4 -3 -5 -2 -2 2 8 11 -47 42 -63 35 -10
-3 -13 -1 -8 6 4 8 2 10 -7 6 -8 -3 -18 0 -22 6 -5 8 -12 7 -23 -3 -23 -19
-55 -30 -46 -15 5 8 2 9 -9 5 -9 -3 -16 -3 -16 1 3 19 -2 30 -16 36 -8 3 -14
0 -12 -7 1 -8 -12 -12 -39 -12 -40 0 -42 1 -40 29 2 24 1 26 -10 11 -12 -15
-14 -15 -32 3 -11 11 -22 18 -25 16 -2 -2 -12 5 -22 16 -10 11 -28 20 -40 20
-11 0 -27 6 -35 13 -7 6 -5 0 6 -14 13 -18 21 -23 26 -15 6 8 8 8 8 -1 0 -7 6
-12 13 -10 6 1 11 -4 9 -11 -1 -8 2 -11 7 -8 5 4 12 2 16 -4 3 -5 1 -10 -6
-10 -8 0 -9 -4 0 -13 8 -10 6 -19 -9 -35 -12 -12 -16 -23 -10 -27 6 -3 10 0
10 7 0 10 3 9 11 -2 9 -13 10 -12 5 3 -3 9 -2 17 3 17 5 0 11 -9 14 -20 3 -11
2 -18 -3 -15 -15 9 -19 -38 -4 -59 7 -11 14 -17 14 -13 0 7 38 -35 70 -78 14
-18 13 -18 -15 2 -36 25 -102 94 -139 144 -22 31 -49 96 -83 203 -6 18 11 36
35 36 7 0 59 -11 115 -25z m1187 -45 c0 -5 -2 -10 -4 -10 -3 0 -8 5 -11 10 -3
6 -1 10 4 10 6 0 11 -4 11 -10z m7 -52 c-3 -8 -6 -5 -6 6 -1 11 2 17 5 13 3
-3 4 -12 1 -19z m-24 -13 c-3 -8 0 -15 6 -15 6 0 11 -5 11 -11 0 -8 -4 -8 -14
0 -10 8 -16 9 -21 1 -3 -6 -11 -8 -16 -4 -6 3 -5 12 3 22 12 15 11 16 -4 3
-10 -7 -18 -10 -18 -7 0 4 -5 4 -10 1 -13 -8 9 -31 36 -38 18 -4 18 -5 -1 -6
-12 0 -26 -6 -31 -11 -11 -11 -76 -2 -69 10 2 3 18 5 36 2 24 -4 30 -1 27 9
-3 8 -17 14 -32 13 -25 -1 -26 0 -9 15 16 16 24 18 78 22 14 1 22 6 18 12 -3
6 -1 7 5 3 6 -4 9 -13 5 -21z m-2653 -55 c30 -30 24 -43 -10 -25 -16 9 -30 22
-30 30 0 21 16 19 40 -5z m1600 -21 c0 -4 -7 -6 -15 -3 -8 4 -15 10 -15 15 0
4 7 6 15 3 8 -4 15 -10 15 -15z m-1366 -20 c-12 -13 -20 -16 -22 -9 -3 7 2 16
9 21 25 16 32 9 13 -12z m270 -5 c9 -3 16 -14 16 -23 0 -24 -16 -44 -29 -36
-9 5 -7 11 6 20 17 13 17 14 -2 29 -21 16 -17 20 9 10z m-54 -19 c9 -11 10
-18 1 -28 -6 -8 -7 -17 -3 -22 4 -4 0 -6 -8 -3 -16 5 -27 68 -12 68 5 0 15 -7
22 -15z m1205 -5 c3 -6 -1 -7 -9 -4 -18 7 -21 14 -7 14 6 0 13 -4 16 -10z m22
-32 c-3 -8 -6 -5 -6 6 -1 11 2 17 5 13 3 -3 4 -12 1 -19z m768 2 c3 -5 2 -10
-4 -10 -5 0 -13 5 -16 10 -3 6 -2 10 4 10 5 0 13 -4 16 -10z m-1917 -56 c-10
-10 -28 6 -28 24 0 15 1 15 17 -1 9 -9 14 -19 11 -23z m1238 -5 c4 -8 1 -8
-14 0 -12 6 -24 16 -28 22 -4 8 -1 8 14 0 12 -6 24 -16 28 -22z m-1328 5 c12
-8 22 -22 22 -30 0 -21 -8 -18 -42 16 -31 32 -19 41 20 14z m3042 -33 c0 -21
-148 -247 -160 -244 -4 1 -14 -4 -20 -13 -11 -12 -10 -13 6 -7 17 6 17 5 5
-10 -10 -12 -18 -14 -32 -7 -10 6 -24 9 -30 8 -7 -2 -13 9 -14 23 -1 14 -5 32
-10 39 -6 10 -4 12 10 7 14 -6 16 -3 12 13 -3 11 -1 18 3 15 5 -3 15 2 23 10
17 16 60 36 92 42 38 6 43 12 38 34 -4 15 -3 20 5 15 7 -4 12 -3 12 2 0 18
-13 20 -36 5 -13 -8 -24 -13 -24 -10 0 3 16 15 35 27 43 26 34 49 -17 43 -24
-2 -18 2 22 15 61 20 80 19 80 -7z m-1679 -8 c13 -17 13 -17 -6 -3 -11 8 -22
16 -24 17 -2 2 0 3 6 3 6 0 17 -8 24 -17z m-991 -2 c0 -6 -4 -12 -10 -16 -5
-3 -7 -12 -3 -20 3 -8 0 -15 -6 -15 -12 0 -15 42 -4 53 9 10 23 8 23 -2z
m-185 -9 c10 -7 19 -32 12 -32 -2 0 -12 9 -22 20 -17 19 -11 28 10 12z m62
-38 c-10 -10 -37 16 -37 34 0 13 4 12 22 -5 12 -13 19 -25 15 -29z m2642 42
c-2 -2 -24 -6 -49 -9 -30 -4 -38 -3 -25 3 19 8 83 14 74 6z m1109 -158 c6 -6
35 -13 64 -16 l53 -6 -55 -7 c-63 -9 -80 -25 -81 -83 l-1 -41 -13 48 c-7 27
-16 51 -19 54 -3 3 -27 12 -53 19 l-48 13 38 0 c51 1 77 29 78 84 l0 42 13
-48 c7 -27 18 -53 24 -59z m-2867 -38 c16 0 29 -4 29 -10 0 -11 -57 -2 -80 12
-12 8 -11 8 3 4 10 -3 32 -6 48 -6z m103 -18 c2 -4 -11 -6 -30 -4 -19 2 -34 6
-34 8 0 8 59 4 64 -4z m43 -8 c-3 -3 -12 -4 -19 -1 -8 3 -5 6 6 6 11 1 17 -2
13 -5z m-792 -25 c11 -3 21 -12 23 -22 6 -30 -17 -47 -63 -47 -38 0 -44 3 -49
26 -4 14 -2 32 4 39 13 15 52 24 60 14 3 -4 14 -8 25 -10z m1650 -20 c-10 -30
-45 -68 -80 -86 l-30 -16 19 21 c11 12 16 30 13 41 -4 18 1 24 28 31 6 1 19 9
30 16 26 18 28 18 20 -7z m-1490 1 c3 -5 -22 -38 -56 -72 -34 -35 -59 -55 -56
-46 7 19 -17 43 -33 33 -15 -9 -12 16 5 34 8 9 23 26 35 39 21 23 93 32 105
12z m2159 -16 c4 -9 4 -19 1 -22 -3 -3 -5 0 -5 6 0 7 -7 12 -16 12 -8 0 -12 5
-9 10 9 15 22 12 29 -6z m31 6 c3 -5 2 -10 -4 -10 -5 0 -13 5 -16 10 -3 6 -2
10 4 10 5 0 13 -4 16 -10z m-855 -104 c0 -3 -4 -8 -10 -11 -5 -3 -10 -1 -10 4
0 6 5 11 10 11 6 0 10 -2 10 -4z m-1086 -88 c20 -28 21 -58 1 -58 -20 0 -66
52 -60 68 3 8 5 18 5 23 0 15 37 -8 54 -33z m-369 -46 c-7 -7 -45 29 -45 41 0
6 11 0 25 -13 14 -13 23 -26 20 -28z m267 -19 c10 -9 15 -20 12 -24 -3 -5 1
-9 9 -9 8 0 26 -9 40 -20 22 -18 25 -25 17 -45 -5 -14 -7 -25 -3 -25 4 0 -2
-6 -12 -14 -22 -16 -72 -11 -92 9 -14 15 -9 40 15 67 13 16 12 17 -19 8 -28
-8 -36 -7 -46 7 -42 56 25 95 79 46z m691 3 c3 -8 -1 -20 -9 -26 -10 -9 -14
-9 -14 -1 0 6 6 11 13 11 8 0 7 3 -3 10 -9 6 -20 5 -30 -3 -13 -11 -13 -10 -1
6 16 21 37 22 44 3z m-962 -32 c32 -29 51 -71 41 -92 -5 -9 -7 -24 -5 -32 3
-9 1 -11 -4 -5 -4 6 -20 16 -35 24 -16 8 -28 23 -28 33 0 23 -23 23 -75 -1
-97 -44 -117 43 -21 91 35 18 97 9 127 -18z m-591 -105 c0 -6 -4 -7 -10 -4 -5
3 -10 11 -10 16 0 6 5 7 10 4 6 -3 10 -11 10 -16z m1088 -16 c27 -32 25 -57
-5 -61 -16 -2 -26 5 -38 32 -27 57 1 77 43 29z m-571 -15 c-3 -7 -5 -2 -5 12
0 14 2 19 5 13 2 -7 2 -19 0 -25z m1887 20 c-2 -3 4 -9 13 -11 10 -3 -1 -5
-24 -6 -37 -1 -60 9 -49 20 7 7 64 4 60 -3z m-1914 -29 c0 -5 -7 -9 -15 -9 -9
0 -12 6 -9 15 6 15 24 11 24 -6z m-370 -9 c12 -6 16 -17 13 -30 -3 -11 0 -20
6 -20 6 0 8 -8 4 -17 -3 -10 7 -3 24 15 35 38 50 40 64 9 13 -29 -13 -97 -38
-97 -9 0 -41 25 -70 56 -45 47 -51 58 -43 75 12 22 15 23 40 9z m-130 -46 c17
-19 35 -34 40 -34 5 0 29 -25 54 -56 51 -62 59 -103 27 -141 -22 -27 -34 -29
-51 -8 -8 10 -18 12 -28 6 -8 -5 -23 -6 -33 -4 -26 7 -24 -12 4 -39 l22 -23
-32 -3 c-18 -2 -33 -7 -33 -12 0 -5 -8 -6 -17 -3 -20 7 -53 42 -53 55 0 10 33
44 51 51 12 5 12 7 0 15 -12 8 -10 15 8 37 11 15 21 32 21 36 0 14 -28 11 -61
-6 -36 -19 -53 -12 -39 16 14 25 3 24 -19 -2 l-17 -21 -47 23 c-52 27 -62 42
-47 70 10 18 37 24 82 20 10 -1 30 11 46 27 49 50 73 49 122 -4z m1798 2 c-11
-11 -15 -11 -24 3 -17 22 -7 33 17 21 15 -9 17 -13 7 -24z m-262 8 c59 -20 93
-43 167 -113 48 -47 57 -61 57 -91 0 -19 7 -44 15 -54 26 -34 11 -114 -19
-103 -7 3 -18 -3 -24 -13 -6 -11 -35 -26 -64 -35 -53 -17 -53 -16 -127 12 -66
25 -80 36 -122 88 -28 36 -54 82 -64 115 -9 30 -25 70 -35 90 -18 36 -14 70
11 85 15 10 107 32 136 34 12 1 43 -6 69 -15z m-1128 -47 c23 -10 42 -23 42
-28 0 -4 -17 -13 -37 -18 -138 -37 -130 -36 -148 -18 -15 16 -16 20 -2 41 41
61 57 64 145 23z m1416 24 c3 -5 -1 -11 -9 -14 -9 -4 -12 -1 -8 9 6 16 10 17
17 5z m-988 -17 c42 -20 74 -59 74 -89 0 -17 9 -25 38 -33 68 -21 152 -124
152 -187 0 -31 -22 -86 -41 -102 -20 -16 -87 -25 -95 -12 -8 13 16 60 27 53 4
-2 10 0 14 6 3 5 -5 15 -19 21 -14 7 -23 16 -19 22 3 5 -1 14 -8 19 -11 8 -12
10 -1 15 10 4 8 9 -7 20 -12 8 -21 21 -21 29 0 17 -17 19 -23 2 -3 -8 -9 -3
-15 12 -10 24 -14 22 -16 -10 -1 -8 -9 -14 -19 -12 -23 4 -22 -6 4 -26 11 -10
22 -28 24 -42 2 -14 7 -42 11 -63 5 -26 2 -42 -8 -55 -8 -9 -20 -30 -26 -45
-8 -19 -18 -27 -27 -23 -8 3 -15 1 -15 -4 0 -15 -86 -12 -98 3 -6 7 -7 19 -3
26 5 7 4 33 -2 59 -7 33 -6 47 2 50 16 5 14 32 -4 38 -18 7 -20 25 -3 22 6 -2
17 8 24 21 16 31 -1 61 -34 61 -19 0 -22 -4 -17 -21 7 -21 6 -21 -24 2 -30 22
-42 61 -23 73 5 3 25 -4 45 -14 20 -11 47 -20 59 -20 13 0 36 -7 52 -15 28
-15 65 -21 53 -8 -4 3 -2 12 4 20 6 7 10 13 8 14 -2 0 -12 2 -22 4 -25 5 -27
7 -20 33 4 15 13 22 29 22 29 0 47 35 32 63 -7 13 -18 17 -41 15 -28 -3 -32
-7 -32 -32 0 -21 -5 -30 -19 -32 -31 -4 -59 15 -53 37 3 10 1 19 -4 19 -24 0
40 79 64 80 5 0 24 -7 43 -16z m-131 -5 c4 -5 4 -21 1 -34 -5 -19 -12 -24 -31
-23 -28 3 -30 7 -13 43 12 26 32 33 43 14z m1138 -16 c-3 -10 -3 -15 2 -11 4
4 17 2 28 -3 16 -9 17 -13 6 -20 -8 -5 -20 -2 -31 8 -19 17 -24 43 -8 43 5 0
7 -8 3 -17z m73 -30 c-2 -2 4 -13 15 -24 20 -20 18 -39 -5 -39 -20 0 -54 42
-38 47 6 3 12 11 12 19 0 9 5 12 11 9 6 -4 8 -9 5 -12z m-757 -10 c17 -10 31
-23 31 -30 0 -6 3 -19 6 -27 5 -12 2 -15 -12 -9 -13 5 -16 3 -11 -10 8 -21 -1
-21 -42 -1 -40 20 -55 47 -41 74 13 25 29 25 69 3z m-724 -43 c-13 -74 -23
-103 -34 -96 -4 3 -8 -7 -9 -20 -1 -21 0 -23 12 -12 8 7 13 17 13 23 -1 5 9
11 23 13 14 2 32 6 40 9 30 13 60 12 60 -2 0 -7 6 -15 13 -18 9 -3 9 -8 -2
-21 -8 -9 -11 -19 -8 -22 3 -4 1 -12 -6 -19 -28 -30 -42 -52 -44 -69 -1 -16 1
-16 21 3 26 25 38 27 30 6 -4 -8 -1 -15 6 -15 6 0 8 -4 5 -10 -3 -5 -1 -10 4
-10 6 0 16 20 22 45 6 25 17 45 23 45 23 0 58 -47 52 -68 -5 -14 0 -25 15 -36
19 -13 21 -21 15 -58 -10 -64 -30 -88 -70 -88 -51 0 -65 9 -82 48 -21 51 -41
70 -97 94 -38 17 -47 25 -44 40 3 11 -2 22 -13 28 -10 6 -16 17 -14 27 5 23
-10 48 -25 39 -6 -4 -11 -15 -11 -24 0 -32 -15 -43 -49 -36 -49 10 -66 55 -45
117 9 25 22 51 29 57 14 12 153 69 168 70 5 0 6 -18 2 -40z m-201 -2 c-7 -11
-34 3 -34 18 0 12 4 12 19 2 11 -7 18 -15 15 -20z m-274 2 c0 -5 -8 -10 -17
-10 -15 0 -16 2 -3 10 19 12 20 12 20 0z m515 0 c3 -5 -1 -10 -9 -10 -9 0 -16
5 -16 10 0 6 4 10 9 10 6 0 13 -4 16 -10z m-631 -45 c3 -8 1 -15 -4 -15 -6 0
-10 7 -10 15 0 8 2 15 4 15 2 0 6 -7 10 -15z m2196 -10 l25 -15 -25 3 c-18 1
-24 -2 -22 -13 3 -11 -2 -10 -17 4 -36 33 -7 48 39 21z m-837 -101 c-4 -10 -9
-12 -15 -6 -12 12 -1 35 12 27 5 -3 6 -13 3 -21z m-653 -34 c0 -5 -7 -10 -16
-10 -8 0 -12 5 -9 10 3 6 10 10 16 10 5 0 9 -4 9 -10z m893 -217 c-7 -2 -19
-2 -25 0 -7 3 -2 5 12 5 14 0 19 -2 13 -5z m-2747 -95 c15 -13 20 -25 16 -44
-3 -19 -1 -25 7 -20 6 4 9 11 6 16 -3 5 -1 11 4 14 10 7 7 -47 -4 -64 -3 -6 1
-7 9 -4 9 3 16 2 16 -4 0 -6 -6 -13 -12 -15 -9 -4 -8 -6 3 -6 17 -1 66 -61 49
-61 -6 0 -8 -5 -4 -12 4 -7 3 -8 -4 -4 -39 24 -115 176 -125 251 l-6 40 12
-35 c6 -19 21 -43 33 -52z m2749 51 c20 0 20 0 0 -8 -11 -5 -21 -4 -23 0 -2 5
-10 9 -18 9 -9 0 -12 5 -8 11 4 8 9 8 17 0 6 -6 20 -11 32 -12z m51 11 c21 -8
25 -13 16 -22 -9 -9 -17 -7 -34 10 -25 25 -22 27 18 12z m-566 -4 c0 -11 -19
-15 -25 -6 -3 5 1 10 9 10 9 0 16 -2 16 -4z m655 -16 c-3 -5 -14 -6 -25 -3
-11 3 -18 9 -15 13 3 5 14 6 25 3 11 -3 18 -9 15 -13z m50 10 c3 -6 -1 -7 -9
-4 -18 7 -21 14 -7 14 6 0 13 -4 16 -10z m-881 -35 c16 -17 30 -23 47 -19 21
4 22 3 4 -5 -11 -5 -26 -10 -32 -10 -15 -1 -53 34 -53 49 0 16 9 12 34 -15z
m1059 -16 c-4 -13 -9 -17 -16 -10 -12 12 -1 45 12 37 5 -3 7 -15 4 -27z m73
11 c0 -9 -6 -17 -13 -17 -7 0 -13 4 -13 8 0 5 -8 6 -17 3 -17 -5 -17 -5 -1 9
23 19 44 17 44 -3z m-116 -64 c0 -13 -7 -26 -15 -30 -13 -4 -13 -2 -5 14 10
19 6 43 -14 70 -6 9 -1 5 12 -8 12 -13 22 -34 22 -46z m-1130 50 c0 -2 -7 -6
-15 -10 -8 -3 -15 -1 -15 4 0 6 7 10 15 10 8 0 15 -2 15 -4z m1170 -32 c0 -8
-19 -13 -24 -6 -3 5 1 9 9 9 8 0 15 -2 15 -3z m1361 -123 c3 -217 4 -226 19
-223 8 2 24 12 35 21 11 10 31 24 45 31 23 12 24 12 11 -3 -7 -10 -10 -17 -5
-17 5 0 -21 -27 -56 -60 -41 -37 -59 -59 -48 -60 15 0 15 -3 2 -29 -15 -31
-38 -45 -66 -42 -9 1 -22 -8 -29 -20 -10 -19 -9 -21 7 -17 11 3 27 9 37 13 31
13 18 -10 -27 -48 -65 -54 -72 -50 -66 33 2 34 2 35 -17 18 -22 -20 -117 -25
-128 -8 -3 6 -15 10 -26 10 -28 0 -66 44 -73 84 -6 32 -3 46 31 123 7 17 12
37 11 44 -4 16 45 41 65 33 18 -7 82 -126 92 -173 4 -17 15 -36 26 -41 10 -6
19 -20 19 -30 0 -40 28 -14 67 60 11 21 10 27 -6 45 -10 11 -33 48 -51 83 -31
59 -32 68 -26 132 11 122 37 157 109 152 l47 -4 1 -107z m-4397 103 c23 -9 20
-34 -4 -34 -11 0 -20 5 -20 10 0 6 6 10 13 10 8 0 7 4 -3 10 -17 11 -10 13 14
4z m2376 -48 c0 -2 -8 -10 -17 -17 -16 -13 -17 -12 -4 4 13 16 21 21 21 13z
m-2330 -21 c0 -8 -7 -15 -16 -15 -8 0 -12 -4 -9 -10 9 -15 -1 -12 -15 5 -10
12 -8 16 11 24 13 5 25 10 27 10 1 1 2 -6 2 -14z m2715 5 c11 -5 14 -9 7 -9
-8 -1 -10 -10 -6 -28 l6 -28 -14 24 c-7 13 -29 30 -48 37 l-35 12 35 1 c19 0
44 -4 55 -9z m1080 -10 c3 -5 1 -10 -4 -10 -6 0 -11 5 -11 10 0 6 2 10 4 10 3
0 8 -4 11 -10z m-902 -30 c62 -24 118 -67 115 -88 -2 -10 3 -16 10 -14 8 1 11
-2 8 -7 -3 -5 1 -11 9 -15 17 -6 21 -46 5 -46 -5 0 -10 5 -10 11 0 6 -9 22
-20 36 -23 30 -28 8 -5 -23 20 -27 18 -36 -5 -22 -11 7 -20 19 -20 26 0 25
-32 68 -59 80 -14 6 -38 21 -53 33 -35 29 -42 21 -23 -24 13 -32 20 -37 50
-37 18 0 37 -4 40 -10 13 -21 -61 -9 -100 16 -24 15 -31 23 -17 19 l23 -7 -21
41 c-12 24 -28 41 -38 41 -9 0 -24 5 -32 11 -24 16 87 0 143 -21z m483 -28
c-14 -15 -15 -13 -6 18 6 19 11 37 11 40 1 3 4 -6 6 -19 3 -13 -2 -30 -11 -39z
m-1076 45 c0 -2 -11 -19 -26 -38 l-25 -34 38 -13 c38 -12 38 -12 4 -7 -18 3
-40 5 -48 5 -10 0 -4 14 18 45 29 41 39 51 39 42z m352 -3 c40 -7 42 -24 3
-24 -21 0 -22 -2 -13 -28 19 -48 -33 -151 -56 -113 -3 4 -18 11 -34 14 -25 5
-28 9 -24 36 3 20 8 28 18 24 8 -3 21 0 28 6 20 17 30 -3 16 -29 -16 -30 -8
-46 13 -26 33 33 14 113 -24 101 -20 -7 -20 -6 -4 19 19 28 22 29 77 20z
m1881 -42 c23 -20 22 -54 -4 -86 -28 -36 -44 -20 -52 51 -7 66 8 76 56 35z
m-2176 -18 c-3 -3 -12 -4 -19 -1 -8 3 -5 6 6 6 11 1 17 -2 13 -5z m-160 -10
c-3 -3 -12 -4 -19 -1 -8 3 -5 6 6 6 11 1 17 -2 13 -5z m166 -31 c-7 -2 -19 -2
-25 0 -7 3 -2 5 12 5 14 0 19 -2 13 -5z m1057 -53 c0 -5 -6 -10 -14 -10 -8 0
-18 5 -21 10 -3 6 3 10 14 10 12 0 21 -4 21 -10z m-703 -46 c-3 -3 -12 -4 -19
-1 -8 3 -5 6 6 6 11 1 17 -2 13 -5z m323 -38 c0 -3 -4 -8 -10 -11 -5 -3 -10
-1 -10 4 0 6 5 11 10 11 6 0 10 -2 10 -4z m707 -50 c15 -8 41 -20 57 -28 16
-7 31 -21 34 -30 2 -10 13 -18 23 -18 10 0 21 -5 25 -12 4 -6 3 -8 -4 -4 -6 3
-14 1 -19 -7 -16 -25 -79 -36 -152 -25 -64 9 -70 12 -88 47 -11 20 -18 43 -16
51 3 8 6 21 8 28 6 17 96 16 132 -2z m-1073 -31 c-4 -8 -10 -15 -16 -15 -5 0
-6 -4 -3 -10 3 -5 -2 -10 -11 -10 -15 0 -14 4 6 25 27 29 32 31 24 10z m194
-70 c-3 -3 -9 2 -12 12 -6 14 -5 15 5 6 7 -7 10 -15 7 -18z m-5 -62 c18 -17
23 -43 8 -43 -5 0 -14 -13 -19 -29 -16 -46 -41 -54 -91 -29 -24 12 -45 27 -48
34 -3 8 -10 11 -17 7 -6 -4 5 9 24 28 19 20 44 41 55 47 24 14 63 7 88 -15z
m762 13 l40 -12 -29 -27 c-19 -17 -36 -25 -47 -22 -11 4 -26 -2 -38 -14 -12
-12 -31 -22 -43 -23 -25 -1 -27 -2 -80 -12 -33 -7 -36 -10 -25 -27 15 -24 28
-25 21 -1 -4 10 -2 13 3 6 4 -5 19 -18 33 -28 22 -16 22 -17 4 -12 -18 6 -21
2 -21 -19 0 -32 -10 -42 -25 -27 -22 22 -29 12 -11 -15 17 -28 17 -28 -3 -10
-11 9 -28 17 -37 17 -19 0 -47 37 -47 63 0 15 -5 17 -34 12 -42 -8 -51 5 -29
43 24 42 105 89 168 96 6 1 25 5 42 10 36 8 77 0 68 -15 -4 -5 3 -9 14 -9 24
0 27 10 9 28 -16 16 12 15 67 -2z m-1165 -36 c0 -5 -11 -10 -25 -10 -14 0 -25
5 -25 10 0 6 11 10 25 10 14 0 25 -4 25 -10z m1581 -44 c-11 -11 -26 -16 -35
-13 -24 9 -19 25 11 41 35 18 51 0 24 -28z m-121 -5 c0 -4 -6 -15 -13 -26 -13
-16 -14 -15 -9 13 2 18 8 29 13 26 5 -3 9 -9 9 -13z m373 -8 c-7 -2 -21 -2
-30 0 -10 3 -4 5 12 5 17 0 24 -2 18 -5z m-53 -13 c0 -5 -4 -10 -10 -10 -5 0
-10 5 -10 10 0 6 5 10 10 10 6 0 10 -4 10 -10z m-1575 -19 l40 -7 -33 -17
c-44 -24 -36 -41 24 -48 48 -5 49 -6 16 -14 -18 -4 -39 -17 -47 -28 -24 -34
-68 -30 -108 12 -51 54 -52 67 -9 96 24 17 44 23 57 19 11 -3 38 -9 60 -13z
m70 -11 c3 -5 1 -10 -4 -10 -6 0 -11 5 -11 10 0 6 2 10 4 10 3 0 8 -4 11 -10z
m-3342 -107 c8 -8 36 -18 63 -22 37 -7 41 -9 18 -10 -65 -2 -93 -20 -104 -64
-17 -63 -18 -65 -19 -21 -1 54 -17 72 -76 89 l-50 13 46 1 c62 1 80 17 87 77
l6 49 7 -49 c4 -27 14 -55 22 -63z m4407 48 c0 -13 -51 -73 -57 -67 -5 5 45
76 53 76 2 0 4 -4 4 -9z m-4160 -391 c27 -142 109 -185 405 -209 l100 -8 -107
-2 c-126 -1 -249 -17 -298 -37 -84 -35 -123 -111 -141 -272 -22 -197 -27 -207
-28 -57 -2 208 -24 280 -101 332 -44 30 -86 41 -205 54 -187 20 -202 27 -64
28 322 3 381 58 406 381 l8 95 7 -125 c4 -69 12 -150 18 -180z m4080 256 c0
-2 -8 -10 -17 -17 -16 -13 -17 -12 -4 4 13 16 21 21 21 13z m-1390 -60 c0 -3
-4 -8 -10 -11 -5 -3 -10 -1 -10 4 0 6 5 11 10 11 6 0 10 -2 10 -4z m1620 -50
c0 -3 -11 -17 -25 -32 -18 -19 -22 -30 -15 -39 21 -25 0 -46 -42 -43 -41 2
-65 18 -28 18 29 0 47 20 42 47 -3 14 1 23 8 23 6 0 18 7 26 15 15 14 34 20
34 11z m-263 -42 c-3 -3 -12 -4 -19 -1 -8 3 -5 6 6 6 11 1 17 -2 13 -5z m270
-16 c-3 -8 -6 -5 -6 6 -1 11 2 17 5 13 3 -3 4 -12 1 -19z m-267 -31 c0 -7 -26
-20 -59 -29 -66 -17 -96 -10 -59 14 42 28 118 37 118 15z m637 -29 c72 -36
106 -65 99 -84 -3 -8 16 -36 47 -66 53 -53 52 -71 -2 -43 -33 17 -135 29 -126
15 3 -5 -8 -5 -26 0 -28 8 -29 8 -17 -7 11 -15 11 -16 -7 -8 -18 7 -44 12 -83
14 -7 1 -10 6 -7 11 4 6 -5 10 -20 10 -69 0 -174 44 -137 57 10 4 10 8 1 19
-20 24 4 62 44 69 39 8 140 -9 215 -35 28 -10 52 -14 52 -9 0 5 -12 14 -27 19
-16 6 -36 15 -46 20 -10 6 -22 8 -27 5 -4 -3 -16 3 -26 12 -12 12 -13 18 -4
21 9 3 9 7 -1 14 -27 18 35 -3 98 -34z m-362 3 c-3 -6 -14 -11 -23 -11 -13 0
-13 2 4 14 21 15 30 14 19 -3z m-150 -21 c3 -5 1 -10 -4 -10 -6 0 -11 5 -11
10 0 6 2 10 4 10 3 0 8 -4 11 -10z m35 1 c0 -5 14 -9 30 -9 39 1 48 -8 15 -14
-17 -4 -34 1 -48 13 -12 10 -16 18 -9 19 6 0 12 -4 12 -9z m-1900 -35 c0 -3
-4 -8 -10 -11 -5 -3 -10 -1 -10 4 0 6 5 11 10 11 6 0 10 -2 10 -4z m1790 -76
c-11 -7 -3 -10 30 -11 l45 -1 -38 -8 c-47 -9 -59 -20 -21 -20 22 0 26 -3 14
-10 -11 -7 -6 -10 20 -10 26 0 31 3 20 10 -12 7 -8 10 15 10 17 0 41 3 54 7
18 5 22 3 16 -7 -5 -9 -4 -11 4 -6 6 4 8 12 5 18 -5 7 0 9 15 5 12 -3 28 1 36
10 10 9 15 10 15 2 0 -9 3 -9 14 1 12 9 24 7 59 -8 55 -24 130 -91 104 -93
-30 -2 -35 -4 -43 -11 -4 -5 -16 -8 -27 -8 -19 0 -19 1 1 34 11 19 18 37 15
39 -7 8 -63 -13 -63 -23 0 -5 -9 -7 -21 -5 -12 2 -28 -3 -37 -11 -9 -10 -24
-13 -41 -9 -15 3 -21 2 -14 -3 9 -6 0 -19 -32 -45 -24 -20 -46 -37 -50 -37 -4
0 62 60 73 66 1 0 -4 13 -11 28 -13 24 -15 25 -28 9 -8 -9 -9 -14 -2 -10 6 4
14 3 18 -2 3 -6 -15 -29 -40 -52 -31 -29 -42 -45 -36 -53 7 -8 4 -16 -10 -24
-11 -7 -17 -17 -14 -21 8 -14 -26 -22 -41 -10 -16 13 -8 33 8 23 8 -5 9 -1 5
10 -4 10 -7 25 -7 34 -1 15 -3 14 -15 -2 -8 -11 -15 -29 -16 -40 0 -12 -3 -15
-6 -8 -7 17 34 111 61 140 l21 23 -43 -4 c-50 -5 -67 -17 -26 -18 26 -1 26 -2
-9 -10 -84 -20 -146 62 -79 103 29 19 130 26 102 8z m-224 -41 c34 1 102 -65
114 -110 13 -48 7 -61 -24 -49 -13 5 -27 5 -32 0 -16 -14 -57 -23 -49 -10 4 7
-1 13 -13 17 -13 3 -18 11 -15 19 6 16 -37 16 -49 -1 -4 -5 -8 2 -8 18 0 38
-1 41 -12 55 -7 8 -7 12 2 12 9 0 9 4 -1 17 -12 15 -12 16 1 8 13 -7 13 -6 2
7 -11 14 -10 17 5 21 10 3 27 3 38 0 11 -3 29 -4 41 -4z m-148 -56 c-2 -14 -8
-28 -15 -30 -7 -3 -10 4 -6 19 4 18 3 20 -6 8 -6 -8 -11 -10 -11 -4 0 12 21
34 33 34 4 0 7 -12 5 -27z m696 6 c-4 -7 -41 -27 -83 -47 -42 -19 -90 -46
-108 -59 -19 -15 -34 -20 -38 -14 -3 6 0 11 8 11 8 0 37 18 65 40 27 22 56 38
64 35 7 -3 31 6 53 20 46 28 49 29 39 14z m-1489 -29 c-3 -5 -12 -10 -18 -10
-7 0 -6 4 3 10 19 12 23 12 15 0z m1481 -45 c-11 -8 -27 -15 -37 -15 -9 0 -22
-7 -29 -15 -7 -8 -17 -15 -23 -15 -21 0 18 29 58 43 52 19 54 19 31 2z m-1616
-19 c0 -2 -9 -6 -20 -9 -11 -3 -18 -1 -14 4 5 9 34 13 34 5z m1510 -30 c0 -2
-11 -6 -25 -8 -13 -3 -22 -1 -19 3 5 9 44 13 44 5z m-916 -32 c5 -14 4 -15 -9
-4 -17 14 -19 20 -6 20 5 0 12 -7 15 -16z m-9 -24 c3 -5 -1 -10 -9 -10 -8 0
-18 5 -21 10 -3 6 1 10 9 10 8 0 18 -4 21 -10z m-2988 -191 c23 -23 76 -38
143 -40 54 -2 39 -6 -53 -14 -94 -9 -114 -28 -132 -125 l-13 -75 -1 58 c-1 68
-21 121 -51 137 -12 6 -49 15 -83 19 l-62 7 70 8 c107 12 122 28 141 151 l8
50 6 -78 c5 -59 11 -82 27 -98z m345 -810 c5 -50 -3 -56 -26 -19 -19 33 -65
50 -133 50 l-43 0 0 -85 0 -85 38 0 c46 0 112 18 112 30 0 6 5 10 10 10 6 0
10 -22 10 -50 0 -55 -4 -60 -29 -29 -12 15 -32 22 -79 26 l-62 6 0 -101 c0
-100 0 -102 25 -108 33 -8 114 4 142 22 12 7 24 23 28 34 11 35 25 22 25 -25
l0 -45 -155 0 c-151 0 -155 1 -145 19 6 11 10 90 10 186 0 96 -4 175 -10 186
-10 18 -6 19 134 19 l144 0 4 -41z m897 -112 l123 -152 -3 133 c-4 128 -5 134
-29 152 l-25 20 50 0 c38 0 46 -3 37 -12 -9 -9 -12 -68 -12 -205 0 -118 -4
-193 -10 -193 -5 0 -70 74 -145 166 l-135 165 0 -139 c0 -126 2 -142 21 -166
l20 -26 -41 0 c-37 0 -40 2 -30 19 6 11 10 91 10 187 0 142 -3 170 -17 186
-15 17 -14 18 23 18 38 0 42 -3 163 -153z m1253 141 c-8 -8 -12 -45 -12 -102
l1 -91 80 83 c59 61 80 89 76 103 -5 17 0 19 46 18 l52 -1 -30 -13 c-16 -8
-64 -48 -105 -89 -69 -70 -73 -76 -48 -76 56 0 77 -20 124 -117 24 -52 51 -96
59 -99 24 -10 6 -24 -30 -24 -42 0 -63 25 -100 117 -31 79 -50 103 -80 103
-37 0 -45 -19 -45 -105 0 -50 5 -86 12 -93 9 -9 -2 -12 -49 -12 l-61 0 15 30
c20 41 16 338 -6 363 -12 16 -8 17 50 17 49 0 60 -3 51 -12z m1688 -25 l0 -37
-29 28 c-25 24 -40 29 -100 34 l-71 5 0 -87 0 -86 34 0 c43 0 93 18 100 36 12
31 26 11 26 -36 0 -53 -4 -58 -34 -35 -12 9 -42 15 -73 15 l-53 0 0 -93 c0
-59 4 -97 12 -105 9 -9 -2 -12 -49 -12 l-61 0 15 30 c20 41 16 338 -6 363 -12
16 -2 17 138 17 l151 0 0 -37z m110 12 c26 -32 -13 -81 -47 -59 -35 22 -23 74
17 74 10 0 23 -7 30 -15z m-3480 -45 l0 -40 48 -2 47 -2 -47 -3 -48 -4 0 -119
c0 -110 2 -120 21 -130 16 -9 26 -8 46 5 33 22 27 -2 -8 -27 -35 -26 -80 -32
-104 -14 -18 13 -20 28 -23 150 -3 132 -4 136 -25 136 -19 1 -14 8 28 45 27
25 53 45 57 45 5 0 8 -18 8 -40z m1060 0 l0 -40 48 -2 47 -2 -47 -3 -48 -4 0
-114 c0 -90 3 -117 16 -129 19 -20 24 -20 52 0 34 23 36 12 4 -19 -38 -37 -81
-44 -112 -19 -24 19 -25 26 -29 151 -2 104 -6 131 -17 131 -8 0 -14 3 -14 7 0
9 82 82 93 83 4 0 7 -18 7 -40z m2580 0 l0 -40 48 -2 47 -2 -47 -3 -48 -4 0
-119 c0 -110 2 -120 21 -130 16 -9 26 -8 44 4 35 23 42 19 15 -9 -27 -29 -82
-49 -109 -40 -30 9 -41 58 -41 181 0 111 -1 114 -22 114 -20 1 -16 7 27 45 28
25 53 45 58 45 4 0 7 -18 7 -40z m-3823 -64 c27 -23 28 -29 33 -138 3 -62 9
-119 13 -125 6 -10 -2 -13 -31 -13 -43 0 -52 10 -52 58 l0 27 -20 -32 c-21
-35 -66 -63 -100 -63 -12 0 -35 14 -52 30 -25 26 -29 36 -24 63 8 42 42 67
124 93 73 22 87 41 56 75 -23 26 -83 25 -117 -1 -28 -22 -37 -25 -37 -11 0 6
19 21 43 35 57 35 125 35 164 2z m893 -100 c0 -100 3 -128 16 -140 21 -21 42
-20 82 4 l32 20 0 95 c0 57 -4 95 -10 95 -5 0 -10 5 -10 11 0 10 59 39 80 39
6 0 10 -50 10 -138 0 -94 4 -142 12 -150 9 -9 2 -12 -31 -12 -34 0 -44 4 -48
20 -5 20 -6 20 -35 -1 -47 -34 -99 -36 -134 -6 -28 24 -29 29 -32 124 -2 54
-8 102 -13 108 -15 15 -11 23 19 39 60 33 62 29 62 -108z m666 116 c13 -8 29
-72 19 -72 -4 0 -19 13 -34 29 -52 55 -136 51 -129 -6 3 -24 12 -32 73 -56 75
-30 105 -56 105 -93 0 -68 -59 -110 -141 -101 -73 9 -89 21 -89 68 l0 39 43
-45 c35 -36 50 -45 78 -45 40 0 59 15 59 46 0 32 -22 50 -83 68 -98 29 -126
88 -68 147 26 26 36 29 93 29 35 0 68 -4 74 -8z m819 -23 c13 -13 27 -36 30
-51 l7 -27 -114 -3 -113 -3 3 -25 c8 -71 50 -110 119 -110 21 0 53 9 71 20 41
25 42 7 1 -31 -68 -64 -159 -61 -218 6 -27 31 -31 43 -31 93 0 104 66 166 168
159 40 -3 59 -10 77 -28z m320 0 c13 -13 27 -36 30 -51 l7 -27 -114 -3 -113
-3 3 -25 c8 -71 50 -110 119 -110 21 0 53 9 71 20 41 25 42 7 1 -31 -68 -64
-159 -61 -218 6 -27 31 -31 43 -31 93 0 104 66 166 168 159 40 -3 59 -10 77
-28z m165 17 c0 -13 4 -13 35 0 54 22 109 18 144 -12 35 -29 56 -91 47 -143
-14 -90 -106 -156 -187 -134 l-39 10 0 -71 c0 -43 5 -77 12 -84 9 -9 -1 -12
-45 -12 -54 0 -57 1 -47 19 13 26 14 378 0 386 -18 11 -10 26 23 40 41 18 57
18 57 1z m810 -124 c0 -94 4 -142 12 -150 9 -9 -1 -12 -45 -12 -53 0 -71 10
-47 25 6 3 10 52 10 110 0 58 -4 107 -10 110 -18 11 -10 25 23 39 58 26 57 28
57 -122z"/>
<path d="M7642 12375 c-28 -56 -39 -69 -75 -85 -38 -18 -39 -20 -15 -20 15 0
30 5 34 11 3 6 19 9 34 6 17 -4 38 1 58 13 27 17 32 26 32 59 0 22 -8 48 -18
61 l-18 22 -32 -67z"/>
<path d="M7942 12410 c-27 -43 -27 -61 -3 -91 16 -21 22 -22 45 -11 32 14 32
23 2 87 l-23 50 -21 -35z"/>
<path d="M8025 12300 c-5 -8 53 -26 60 -18 2 2 -9 9 -25 15 -17 6 -32 7 -35 3z"/>
<path d="M9366 11850 c-73 -23 -119 -106 -118 -212 1 -142 98 -227 227 -198
91 20 151 142 127 256 -12 61 -55 127 -92 144 -34 16 -109 21 -144 10z"/>
<path d="M10133 11849 c-17 -5 -47 -27 -66 -50 -106 -123 -53 -334 89 -360
127 -24 217 61 216 205 0 156 -103 244 -239 205z"/>
<path d="M5340 11780 l0 -92 56 4 c65 6 84 21 91 75 8 57 -24 90 -94 99 l-53
7 0 -93z"/>
<path d="M6480 11780 l0 -90 44 0 c62 0 96 29 96 81 0 55 -14 76 -58 89 -81
22 -82 21 -82 -80z"/>
<path d="M7213 11734 c-6 -16 -22 -59 -36 -96 l-26 -68 74 0 74 0 -29 81 c-42
114 -45 118 -57 83z"/>
<path d="M8620 11640 l0 -213 44 5 c60 7 111 41 142 93 79 135 7 299 -138 320
l-48 7 0 -212z"/>
<path d="M8359 10780 c-25 -14 -42 -65 -35 -104 10 -52 47 -86 94 -86 48 0 92
30 76 51 -32 41 -107 135 -113 141 -3 4 -13 3 -22 -2z"/>
<path d="M5560 10781 c0 -230 -1 -228 82 -217 70 10 102 28 123 73 25 51 26
154 2 215 -29 75 -105 128 -184 128 l-23 0 0 -199z"/>
<path d="M8939 9735 c-1 -3 -2 -8 -4 -12 -2 -10 -23 -60 -36 -88 -9 -19 -9
-18 -5 3 2 12 1 20 -4 17 -12 -7 -19 -45 -9 -45 5 0 9 -5 9 -11 0 -5 -4 -7
-10 -4 -6 3 -7 -1 -4 -9 8 -21 38 -20 55 1 13 15 12 15 -11 3 -24 -13 -25 -12
-7 7 9 11 17 24 17 30 0 5 11 22 25 37 38 41 32 64 -8 29 -11 -10 -17 -12 -13
-6 9 16 16 53 10 53 -2 0 -5 -2 -5 -5z"/>
<path d="M8873 9675 c0 -8 4 -12 9 -9 5 3 6 10 3 15 -9 13 -12 11 -12 -6z"/>
<path d="M7074 9450 c1 -38 3 -71 6 -73 3 -3 23 -1 45 3 35 7 37 9 18 15 -13
4 -23 13 -23 20 0 15 51 55 69 55 29 0 6 19 -36 30 -86 21 -79 26 -79 -50z"/>
<path d="M6710 9496 c0 -19 27 -39 40 -31 8 5 6 13 -6 26 -20 22 -34 25 -34 5z"/>
<path d="M7367 9423 c-4 -3 -7 -16 -7 -27 0 -52 -21 -93 -67 -131 -28 -24 -48
-34 -51 -27 -7 22 -20 12 -24 -19 -5 -31 -5 -31 34 -26 21 3 38 1 38 -5 0 -13
73 -82 84 -79 5 1 12 -3 16 -9 5 -8 15 -3 32 14 21 23 28 25 51 17 15 -6 27
-13 27 -17 0 -3 -6 -4 -12 -1 -9 3 -13 -6 -14 -26 l-1 -30 14 26 c14 28 29 37
20 13 -4 -10 -1 -13 9 -9 10 4 12 9 4 18 -5 6 -6 16 -2 20 4 5 1 5 -5 1 -8 -4
-13 -1 -13 8 0 9 -6 16 -12 16 -9 0 -8 4 2 10 8 5 33 7 55 3 37 -6 39 -5 26
11 -11 13 -23 16 -48 11 -20 -4 -33 -2 -33 5 0 5 9 10 19 10 26 0 35 30 14 45
-10 7 -21 11 -25 9 -5 -3 -8 0 -8 7 0 19 73 2 93 -22 9 -12 17 -32 17 -45 0
-25 7 -29 28 -15 11 7 9 16 -11 47 -27 42 -119 132 -152 150 -11 5 -36 20 -56
32 -20 12 -39 19 -42 15z m113 -167 c0 -11 -19 -15 -25 -6 -3 5 1 10 9 10 9 0
16 -2 16 -4z m-33 -32 c-9 -9 -28 6 -21 18 4 6 10 6 17 -1 6 -6 8 -13 4 -17z
m-46 -8 c18 -15 25 -27 18 -31 -5 -4 -18 0 -28 9 -26 24 -35 19 -17 -9 22 -33
21 -35 -14 -35 -23 0 -30 4 -30 20 0 11 -4 20 -10 20 -19 0 -10 25 13 36 33
17 36 16 68 -10z"/>
<path d="M7040 9323 c0 -14 19 -38 25 -32 8 8 -5 39 -16 39 -5 0 -9 -3 -9 -7z"/>
<path d="M7240 9305 c0 -8 7 -15 16 -15 14 0 14 3 4 15 -7 8 -14 15 -16 15 -2
0 -4 -7 -4 -15z"/>
<path d="M5962 9273 c-6 -2 -10 -9 -6 -14 3 -5 -5 -9 -18 -9 -13 -1 -40 -9
-62 -19 -34 -16 -36 -19 -16 -24 13 -3 33 1 47 10 17 12 27 13 32 5 4 -8 19
-8 49 -1 39 8 45 7 61 -13 l18 -22 7 22 c4 12 15 22 24 23 12 0 10 3 -6 10
-13 5 -28 7 -33 3 -5 -3 -9 4 -9 15 0 18 -6 21 -37 20 -21 0 -44 -3 -51 -6z"/>
<path d="M6138 9253 c7 -3 16 -2 19 1 4 3 -2 6 -13 5 -11 0 -14 -3 -6 -6z"/>
<path d="M7754 9157 c-1 -30 -1 -30 9 -9 6 14 7 26 1 32 -5 5 -9 -4 -10 -23z"/>
<path d="M6018 9159 c-2 -8 4 -22 14 -31 22 -22 25 -2 5 26 -11 15 -15 16 -19
5z"/>
<path d="M5710 9148 c0 -11 47 -10 55 1 3 5 -8 9 -25 9 -16 -1 -30 -5 -30 -10z"/>
<path d="M7255 9130 c3 -5 8 -10 11 -10 2 0 4 5 4 10 0 6 -5 10 -11 10 -5 0
-7 -4 -4 -10z"/>
<path d="M5744 9109 c-3 -6 -12 -8 -19 -5 -22 8 -34 -16 -31 -64 2 -25 -3 -57
-11 -72 -20 -41 -16 -45 17 -13 16 15 32 41 35 56 4 16 18 38 31 48 l25 20
-20 20 c-12 12 -23 16 -27 10z"/>
<path d="M5888 9108 c12 -6 22 -14 22 -17 -1 -10 -71 -42 -80 -36 -5 3 -12 1
-15 -5 -9 -15 14 -40 36 -40 11 0 19 -6 19 -13 0 -8 9 -22 20 -32 29 -26 26
-76 -6 -114 -37 -45 -64 -58 -76 -37 -11 20 -28 21 -28 2 0 -7 -8 -20 -17 -27
-14 -12 -16 -12 -8 0 6 11 4 13 -10 7 -18 -7 -18 -6 -1 13 30 33 14 47 -18 17
-33 -30 -31 -29 -58 -15 -20 11 -20 9 -14 -26 12 -64 67 -194 107 -253 21 -32
60 -76 86 -99 l48 -40 -3 43 c-3 31 -9 45 -22 49 -31 10 -70 46 -70 64 0 10
11 30 24 44 14 15 26 34 28 44 2 10 12 18 22 18 11 0 21 6 24 13 2 6 -1 12 -6
12 -22 0 -72 53 -72 75 0 42 77 74 107 44 8 -8 15 -3 27 19 22 43 72 52 122
23 l36 -21 -7 28 c-10 50 -52 144 -59 134 -3 -6 -3 -17 0 -26 11 -30 -65 -13
-88 19 -10 13 -10 35 0 35 4 0 20 -11 36 -25 16 -14 31 -23 33 -21 10 10 -10
76 -24 76 -8 0 -11 -4 -8 -10 4 -6 -6 -10 -22 -10 -16 0 -34 -5 -41 -12 -9 -9
-12 -4 -12 23 0 19 6 41 13 48 10 10 8 15 -7 27 -11 8 -29 14 -40 13 -20 0
-20 -1 2 -11z m62 -148 c0 -5 -2 -10 -4 -10 -3 0 -8 5 -11 10 -3 6 -1 10 4 10
6 0 11 -4 11 -10z"/>
<path d="M7725 9093 c2 -12 -3 -24 -10 -27 -9 -3 -12 0 -9 8 3 8 1 17 -5 21
-6 3 -11 2 -11 -4 0 -5 -9 -8 -20 -6 -12 2 -18 0 -15 -6 4 -5 10 -7 15 -4 5 3
13 -2 18 -11 6 -11 16 -15 26 -11 22 9 31 36 18 49 -9 9 -10 6 -7 -9z"/>
<path d="M5998 9073 c7 -3 16 -2 19 1 4 3 -2 6 -13 5 -11 0 -14 -3 -6 -6z"/>
<path d="M7495 9059 c-4 -6 -5 -12 -2 -15 2 -3 7 2 10 11 7 17 1 20 -8 4z"/>
<path d="M6487 8926 c-4 -10 -1 -13 9 -9 15 6 19 23 5 23 -5 0 -11 -7 -14 -14z"/>
<path d="M6720 8930 c0 -5 5 -10 11 -10 5 0 7 5 4 10 -3 6 -8 10 -11 10 -2 0
-4 -4 -4 -10z"/>
<path d="M7678 8861 c-14 -25 -14 -32 -3 -41 11 -9 15 -7 20 13 12 45 2 60
-17 28z"/>
<path d="M9553 8815 c15 -30 23 -155 9 -155 -4 0 -20 -10 -36 -23 -27 -22 -27
-24 -12 -40 35 -35 86 25 86 100 0 25 25 47 41 37 8 -5 9 -3 4 6 -6 10 -4 12
11 6 15 -6 14 -2 -6 20 -14 14 -34 30 -45 35 -11 5 -31 17 -44 26 l-24 17 16
-29z"/>
<path d="M6906 8785 c-3 -8 -1 -15 4 -15 6 0 10 7 10 15 0 8 -2 15 -4 15 -2 0
-6 -7 -10 -15z"/>
<path d="M7720 8755 c13 -14 26 -25 28 -25 3 0 -5 11 -18 25 -13 14 -26 25
-28 25 -3 0 5 -11 18 -25z"/>
<path d="M6338 8740 c-12 -21 -13 -27 -3 -24 11 5 28 44 22 50 -1 2 -10 -10
-19 -26z"/>
<path d="M6369 8723 c-13 -16 -12 -17 4 -4 9 7 17 15 17 17 0 8 -8 3 -21 -13z"/>
<path d="M9531 8724 c0 -11 3 -14 6 -6 3 7 2 16 -1 19 -3 4 -6 -2 -5 -13z"/>
<path d="M6230 8691 c0 -6 5 -13 10 -16 6 -3 10 1 10 9 0 9 -4 16 -10 16 -5 0
-10 -4 -10 -9z"/>
<path d="M8333 8660 c-11 -16 -10 -18 2 -14 8 4 15 12 15 20 0 19 -3 18 -17
-6z"/>
<path d="M8950 8632 c6 -13 14 -21 18 -18 3 4 -2 14 -12 24 -18 16 -18 16 -6
-6z"/>
<path d="M6517 8613 c-14 -13 -7 -23 16 -22 17 1 18 2 4 6 -9 2 -15 9 -12 14
7 10 1 12 -8 2z"/>
<path d="M9184 8469 c-8 -13 25 -24 37 -12 7 7 3 12 -10 16 -12 3 -24 1 -27
-4z"/>
<path d="M6094 8437 c-3 -9 -10 -17 -16 -17 -5 0 -6 6 -2 13 6 9 3 8 -8 -1 -9
-8 -14 -20 -11 -29 3 -8 9 -10 12 -5 3 5 23 15 44 21 20 7 37 15 37 18 0 3 -8
2 -17 -1 -9 -4 -20 -1 -24 6 -6 9 -10 8 -15 -5z"/>
<path d="M5640 8408 c0 -17 25 -48 40 -48 4 0 6 -8 3 -19 -6 -24 15 -38 24
-15 7 19 -10 50 -26 47 -6 -2 -11 1 -11 5 0 5 -7 17 -15 28 -12 16 -14 17 -15
2z"/>
<path d="M5915 8381 c3 -6 38 -28 78 -49 53 -29 88 -41 133 -45 l62 -6 4 30 5
30 -49 -5 c-39 -3 -54 0 -67 13 -11 11 -24 15 -32 11 -14 -8 -102 10 -115 23
-11 10 -26 9 -19 -2z"/>
<path d="M6207 8384 c-15 -26 19 -120 53 -144 36 -26 37 -19 8 28 -13 20 -30
56 -39 81 -8 25 -18 40 -22 35z"/>
<path d="M8916 8283 c-6 -14 -5 -15 5 -6 7 7 10 15 7 18 -3 3 -9 -2 -12 -12z"/>
<path d="M5720 8269 c0 -5 5 -7 10 -4 6 3 10 8 10 11 0 2 -4 4 -10 4 -5 0 -10
-5 -10 -11z"/>
<path d="M5913 8198 c-32 -15 -30 -43 3 -46 17 -1 24 2 21 11 -2 6 -13 11 -23
10 -19 -1 -19 -1 0 12 10 8 23 12 29 8 6 -3 7 -1 3 5 -4 7 -8 12 -9 11 -1 0
-12 -5 -24 -11z"/>
<path d="M6107 8103 c-4 -3 -7 -17 -7 -31 0 -21 3 -23 26 -18 14 4 32 2 39 -4
8 -6 24 -10 37 -8 22 3 22 4 -7 19 -16 9 -35 14 -41 12 -6 -2 -14 5 -17 17 -5
20 -18 26 -30 13z"/>
<path d="M7037 7903 c-2 -5 -7 -25 -11 -45 -6 -34 -4 -38 18 -44 23 -5 86 19
86 34 0 15 -16 29 -49 45 -39 20 -38 19 -44 10z"/>
<path d="M10090 7851 c0 -6 5 -13 10 -16 6 -3 10 -17 10 -29 0 -13 7 -29 15
-36 8 -7 13 -16 10 -20 -3 -5 -1 -11 5 -15 5 -3 10 1 10 11 0 13 3 14 13 5 17
-13 27 -5 27 23 0 28 -53 86 -79 86 -12 0 -21 -4 -21 -9z"/>
<path d="M6269 7834 c-6 -8 -8 -15 -3 -16 5 0 14 -2 19 -2 6 -1 20 -8 33 -15
13 -7 70 -16 127 -21 88 -7 111 -5 157 11 l53 18 -105 0 c-121 0 -150 3 -150
12 0 11 -36 17 -52 8 -8 -5 -25 -2 -41 6 -22 11 -28 11 -38 -1z"/>
<path d="M7577 7803 c-4 -3 -7 -11 -7 -17 0 -6 5 -5 12 2 6 6 9 14 7 17 -3 3
-9 2 -12 -2z"/>
<path d="M6473 7740 c-24 -10 -43 -24 -43 -30 0 -11 40 7 75 34 27 20 19 20
-32 -4z"/>
<path d="M6970 7622 c0 -7 -7 -12 -15 -12 -8 0 -19 -17 -26 -42 -6 -24 -17
-55 -25 -69 -12 -25 -11 -28 9 -43 15 -10 16 -14 5 -10 -24 8 -23 3 17 -79 19
-39 35 -79 35 -89 0 -10 5 -18 10 -18 18 0 11 -41 -10 -58 -16 -13 -22 -33
-27 -88 -5 -66 -4 -72 14 -78 12 -4 32 -1 46 5 17 7 39 9 64 3 52 -11 55 -12
79 -13 11 0 46 -16 77 -35 31 -19 57 -31 57 -27 0 11 -31 54 -76 102 -23 25
-52 64 -63 85 -12 21 -27 48 -33 59 -59 97 -68 115 -68 146 1 27 3 31 10 17 6
-9 23 -30 38 -45 15 -16 37 -42 50 -58 15 -21 12 -11 -10 30 -17 33 -38 69
-45 80 -7 11 -13 27 -13 36 0 9 -7 22 -15 29 -8 6 -28 49 -46 93 -32 85 -39
99 -39 79z m75 -382 c3 -5 1 -10 -4 -10 -6 0 -11 5 -11 10 0 6 2 10 4 10 3 0
8 -4 11 -10z"/>
<path d="M6187 7554 c-4 -4 -7 -17 -7 -28 1 -19 1 -20 11 -3 11 19 8 43 -4 31z"/>
<path d="M8280 7440 c8 -5 24 -9 35 -9 l20 0 -20 9 c-11 5 -27 9 -35 9 -13 1
-13 0 0 -9z"/>
<path d="M6145 7283 c-9 -36 7 -48 65 -49 l49 -1 -37 30 c-61 48 -69 50 -77
20z"/>
<path d="M6670 7224 c-19 -13 -58 -33 -86 -45 -50 -21 -52 -23 -42 -50 5 -16
8 -53 6 -83 -3 -50 -2 -53 17 -46 11 5 53 14 92 21 53 9 70 15 63 24 -5 6 -10
27 -12 46 -1 19 -7 42 -14 53 -14 20 -3 64 19 78 8 5 8 10 2 17 -6 6 -22 1
-45 -15z"/>
<path d="M6384 7203 c10 -11 87 -12 80 -2 -3 5 -24 9 -46 9 -23 0 -38 -3 -34
-7z"/>
<path d="M9260 7161 c-12 -24 -13 -34 -1 -27 9 6 22 46 15 46 -2 0 -8 -9 -14
-19z"/>
<path d="M7275 7100 c10 -11 20 -20 23 -20 3 0 -3 9 -13 20 -10 11 -20 20 -23
20 -3 0 3 -9 13 -20z"/>
<path d="M7801 7101 c-15 -28 -14 -31 14 -31 28 0 30 7 10 33 -13 18 -14 18
-24 -2z"/>
<path d="M9112 6945 c-9 -18 -8 -26 1 -31 7 -4 9 -4 5 1 -4 4 -3 16 3 27 6 11
9 22 6 24 -2 2 -9 -7 -15 -21z"/>
<path d="M9050 6880 c0 -5 5 -10 11 -10 5 0 7 5 4 10 -3 6 -8 10 -11 10 -2 0
-4 -4 -4 -10z"/>
<path d="M8936 6869 c2 -4 -4 -10 -13 -12 -11 -3 -8 -5 10 -6 16 -1 27 4 27
12 0 8 -7 14 -15 14 -8 0 -12 -4 -9 -8z"/>
<path d="M9316 6795 c4 -8 8 -15 10 -15 2 0 4 7 4 15 0 8 -4 15 -10 15 -5 0
-7 -7 -4 -15z"/>
<path d="M7460 6679 c0 -5 5 -7 10 -4 6 3 10 8 10 11 0 2 -4 4 -10 4 -5 0 -10
-5 -10 -11z"/>
<path d="M8606 6587 c3 -10 9 -15 12 -12 3 3 0 11 -7 18 -10 9 -11 8 -5 -6z"/>
<path d="M8336 6498 c10 -13 19 -24 20 -26 1 -2 4 4 7 12 4 9 1 15 -6 13 -7
-1 -11 4 -9 11 1 6 -5 12 -15 12 -14 0 -14 -3 3 -22z"/>
<path d="M7776 6441 c-3 -5 6 -8 19 -8 14 0 25 3 25 8 0 5 -9 9 -19 9 -11 0
-22 -4 -25 -9z"/>
<path d="M8384 6438 c3 -20 48 -78 60 -78 6 0 4 5 -4 10 -8 5 -11 10 -7 10 4
0 -1 10 -13 22 -11 12 -20 28 -20 35 0 7 -4 13 -9 13 -5 0 -8 -6 -7 -12z"/>
<path d="M7648 6423 c23 -2 59 -2 80 0 20 2 1 4 -43 4 -44 0 -61 -2 -37 -4z"/>
<path d="M7967 9469 c7 -7 15 -10 18 -7 3 3 -2 9 -12 12 -14 6 -15 5 -6 -5z"/>
<path d="M7870 9460 c0 -4 9 -10 20 -13 11 -3 20 -2 20 3 0 4 -9 10 -20 13
-11 3 -20 2 -20 -3z"/>
<path d="M7985 9441 c-2 -5 4 -11 15 -14 11 -3 20 -2 20 3 0 12 -28 21 -35 11z"/>
<path d="M7623 8223 c23 -6 38 -45 31 -80 -4 -21 0 -31 16 -41 12 -8 19 -9 15
-3 -3 6 -1 11 6 11 8 0 9 3 0 14 -9 10 -8 16 4 26 20 16 19 34 -2 51 -14 12
-16 12 -9 -1 4 -8 -1 -5 -10 8 -10 14 -26 22 -43 21 -18 -1 -20 -3 -8 -6z"/>
<path d="M7425 8060 c3 -5 8 -10 11 -10 2 0 4 5 4 10 0 6 -5 10 -11 10 -5 0
-7 -4 -4 -10z"/>
<path d="M8666 8268 c3 -5 10 -6 15 -3 13 9 11 12 -6 12 -8 0 -12 -4 -9 -9z"/>
<path d="M9638 7283 c7 -3 16 -2 19 1 4 3 -2 6 -13 5 -11 0 -14 -3 -6 -6z"/>
<path d="M8400 7626 c0 -2 7 -7 16 -10 8 -3 12 -2 9 4 -6 10 -25 14 -25 6z"/>
<path d="M8460 7595 c7 -8 17 -15 22 -15 6 0 5 7 -2 15 -7 8 -17 15 -22 15 -6
0 -5 -7 2 -15z"/>
<path d="M8131 7026 c-10 -12 -8 -13 8 -9 12 3 18 9 15 14 -7 12 -10 11 -23
-5z"/>
<path d="M9860 6630 c0 -6 7 -10 15 -10 8 0 15 2 15 4 0 2 -7 6 -15 10 -8 3
-15 1 -15 -4z"/>
<path d="M9480 6527 c-42 -22 -81 -49 -76 -54 6 -7 80 33 95 51 16 19 13 20
-19 3z"/>
<path d="M9320 6480 c-8 -5 -12 -11 -9 -14 2 -3 11 -1 19 4 8 5 12 11 9 14 -2
3 -11 1 -19 -4z"/>
<path d="M9580 6470 c0 -5 5 -10 10 -10 6 0 10 5 10 10 0 6 -4 10 -10 10 -5 0
-10 -4 -10 -10z"/>
<path d="M9330 6435 c-8 -9 -8 -15 -2 -15 12 0 26 19 19 26 -2 2 -10 -2 -17
-11z"/>
<path d="M9053 6425 c-10 -10 -9 -16 1 -24 11 -9 14 -6 14 14 0 14 -1 25 -2
25 0 -1 -6 -7 -13 -15z"/>
<path d="M6055 5082 c-63 -21 -86 -59 -61 -98 9 -13 24 -24 34 -24 42 0 92 62
92 115 0 29 0 29 -65 7z"/>
<path d="M8399 5199 c-24 -9 -49 -45 -49 -69 0 -6 34 -10 75 -10 86 0 95 11
46 61 -32 32 -34 32 -72 18z"/>
<path d="M8719 5199 c-24 -9 -49 -45 -49 -69 0 -6 34 -10 75 -10 86 0 95 11
46 61 -32 32 -34 32 -72 18z"/>
<path d="M9038 5179 c-15 -8 -18 -25 -18 -100 0 -82 2 -92 24 -114 30 -30 70
-41 101 -27 28 13 47 69 39 116 -11 65 -15 75 -40 105 -27 33 -71 41 -106 20z"/>
</g>
</svg>
